<?xml version="1.0" encoding="UTF-8" standalone="no"?>
<!-- Created with Inkscape (http://www.inkscape.org/) -->

<svg
   width="499.92752mm"
   height="646.11548mm"
   viewBox="0 0 499.92752 646.11548"
   version="1.1"
   id="svg433"
   xml:space="preserve"
   inkscape:version="1.2.1 (9c6d41e410, 2022-07-14, custom)"
   sodipodi:docname="1.svg"
   xmlns:inkscape="http://www.inkscape.org/namespaces/inkscape"
   xmlns:sodipodi="http://sodipodi.sourceforge.net/DTD/sodipodi-0.dtd"
   xmlns="http://www.w3.org/2000/svg"
   xmlns:svg="http://www.w3.org/2000/svg">
	<style
   type="text/css"
   id="style2">
		<![CDATA[
			path {
				fill:#fafafa;
			}
			text {
				fill:#fafafa
			}
		]]> 
	  </style>
	<sodipodi:namedview
   id="namedview435"
   pagecolor="#000000"
   bordercolor="#000000"
   borderopacity="0.25"
   inkscape:showpageshadow="2"
   inkscape:pageopacity="0.0"
   inkscape:pagecheckerboard="0"
   inkscape:deskcolor="#d1d1d1"
   inkscape:document-units="mm"
   showgrid="false"
   inkscape:zoom="0.2102413"
   inkscape:cx="794.32538"
   inkscape:cy="1550.5992"
   inkscape:window-width="1440"
   inkscape:window-height="831"
   inkscape:window-x="0"
   inkscape:window-y="0"
   inkscape:window-maximized="1"
   inkscape:current-layer="layer1" /><defs
   id="defs430"><rect
     x="-796.66644"
     y="609.32593"
     width="472.4668"
     height="778.58826"
     id="rect307" /><rect
     x="-843.24609"
     y="576.04938"
     width="565.6261"
     height="672.10718"
     id="rect301" /></defs><g
   inkscape:label="Capa 1"
   inkscape:groupmode="layer"
   id="layer1"
   transform="translate(136.06471,93.473633)"><path
     style="stroke-width:0.260188"
     d="m -22.770254,391.32885 c -38.637509,-0.17214 -39.77215,-0.19097 -42.887161,-0.7122 -6.077543,-1.01692 -13.105833,-3.01518 -19.406743,-5.5177 -12.57744,-4.99534 -24.561422,-13.87257 -33.153182,-24.55842 -6.67951,-8.30753 -12.10198,-18.78896 -14.90477,-28.81033 -1.74519,-6.23991 -2.26427,-9.72411 -2.51589,-16.88716 -0.36821,-10.48228 -0.58864,-237.89622 -0.28099,-289.89614 0.26514,-44.814731 0.28951,-46.282411 0.82223,-49.510066 2.86867,-17.380701 11.01757,-33.004601 23.5588,-45.169289 11.5066,-11.161125 26.629962,-19.090138 42.201042,-22.125537 4.908407,-0.956837 8.728173,-1.154068 27.252081,-1.407138 35.1356195,-0.480016 325.133147,-0.05298 333.242707,0.490719 10.98566,0.736521 26.88252,6.723807 37.61632,14.167557 4.49792,3.11925 6.75471,4.968823 10.68311,8.755412 10.48644,10.107944 17.25411,21.264841 21.4263,35.322556 2.33325,7.86154 2.42131,9.036421 2.78921,37.2154461 0.36761,28.1556629 0.15473,310.9020699 -0.2385,316.7620699 -0.8333,12.418 -7.06882,27.94609 -15.72019,39.1475 -3.68424,4.77019 -9.26798,10.51947 -13.82604,14.23595 -11.2051,9.13625 -24.37551,14.99947 -39.66382,17.65758 l -3.72785,0.64814 -32.54374,0.20989 c -38.35766,0.24736 -223.76332,0.23494 -280.722924,-0.019 z M 282.8235,350.66628 c 5.42967,-0.20134 6.69512,-0.32662 8.73125,-0.86435 7.38933,-1.95157 12.8429,-5.03881 18.38306,-10.40665 5.2129,-5.05074 7.9596,-9.375 10.71819,-16.87424 l 1.45812,-3.96388 V 149.04189 -20.473373 l -1.45812,-3.963891 c -2.75859,-7.499212 -5.50529,-11.823472 -10.71819,-16.874212 -5.54061,-5.368273 -10.99767,-8.457353 -18.38306,-10.406088 -2.04528,-0.539677 -3.3518,-0.667229 -9.26042,-0.904074 -9.7283,-0.389955 -327.293965,-0.392752 -336.682292,-0.003 -5.748274,0.238659 -7.099324,0.373014 -9.128125,0.907741 -4.876861,1.285386 -9.238731,3.262311 -13.189481,5.977853 -2.86871,1.971805 -8.11289,7.078744 -10.17483,9.908555 -3.13503,4.302535 -5.9327,10.692885 -6.66904,15.233208 -0.15945,0.983143 -0.38362,14.2167404 -0.54829,32.367046 -0.35487,39.114605 -0.13571,296.274625 0.25807,302.817375 0.29796,4.95063 0.73024,6.93517 2.42502,11.1332 3.71308,9.1973 11.64917,17.38897 20.90748,21.58078 2.789493,1.26298 5.895749,2.33636 8.313988,2.87294 0.727604,0.16145 4.83526,0.37576 9.128125,0.47621 11.807277,0.27637 328.459675,0.29141 335.888545,0.0159 z M 12.683913,305.34494 c -10.2325935,-0.75517 -20.3294635,-3.57877 -30.639009,-8.56821 -10.402345,-5.03434 -18.479572,-10.8447 -27.573137,-19.83473 -17.086776,-16.89225 -28.352405,-36.68412 -33.988275,-59.71182 -2.68399,-10.96657 -3.42161,-17.30924 -3.63212,-31.23182 -0.20716,-13.70114 0.27866,-19.45171 2.55932,-30.2938 3.61406,-17.18101 10.72089,-34.34026 19.397011,-46.83362 5.732976,-8.25531 15.369019,-19.019536 21.728245,-24.272157 14.028904,-11.58766 33.8245215,-20.425266 50.031298,-22.336102 1.976221,-0.233003 6.13764,-0.340905 12.964584,-0.336156 10.608085,0.0074 13.390118,0.214848 19.020287,1.418426 16.169209,3.456542 35.115966,13.301426 46.96193,24.401789 11.095783,10.3974 23.495293,27.77311 29.391493,41.18695 12.66622,28.81561 14.56141,65.06733 5.00794,95.79311 -10.01207,32.20065 -31.664694,58.44058 -59.371234,71.94951 -13.888974,6.7719 -24.6816,9.01714 -42.8625,8.91697 -3.346979,-0.0184 -7.395104,-0.13021 -8.995833,-0.24834 z m 19.965588,-29.28923 c 14.866935,-1.87074 29.492636,-8.92179 41.634653,-20.07205 12.624084,-11.59295 22.448094,-28.53071 27.003586,-46.55739 3.25482,-12.87981 3.6849,-34.0999 0.95225,-46.98488 C 96.447165,135.12709 81.441501,113.43249 59.655604,100.87454 50.036793,95.330017 42.915263,92.796849 33.85058,91.695564 30.341429,91.26923 16.758832,91.262526 12.948496,91.685252 c -9.2546325,1.026714 -16.5514675,3.518236 -25.471482,8.697288 -10.165009,5.90191 -19.412035,14.20721 -26.332204,23.65052 -4.069609,5.55341 -7.969538,12.37603 -10.784255,18.86621 -2.687725,6.19737 -5.72583,15.9785 -6.725235,21.65181 -1.182232,6.71116 -1.11393,31.08476 0.106868,38.13612 1.049843,6.06389 3.332991,13.80207 6.027243,20.4279 12.351747,30.37595 38.89008,51.30865 67.642904,53.35486 3.840284,0.27329 11.408277,0.0676 15.237166,-0.41425 z M 17.850757,262.37154 c -0.864037,-0.34665 -1.056897,-0.68322 -1.061752,-1.85285 -0.0079,-1.89405 -0.425773,-2.20036 -4.921779,-3.60724 -4.8069465,-1.50415 -8.9062425,-4.05427 -13.2040755,-8.214 -6.677499,-6.46295 -10.1491045,-13.98462 -10.6390925,-23.05095 -0.383767,-7.10089 2.0601285,-16.53544 5.1362225,-19.8281 1.720553,-1.84173 3.388386,-2.23046 5.371607,-1.25203 4.051086,1.99862 5.409512,5.33964 6.085266,14.9666 0.638061,9.08995 1.864783,12.98062 5.106342,16.19522 1.1199675,1.11066 4.1142885,3.22002 5.6436495,3.9757 0.804084,0.3973 0.836274,0.39218 0.988573,-0.15721 0.08658,-0.31234 0.159054,-12.79445 0.161041,-27.73799 l 0.0036,-27.17011 -3.770312,-2.47762 C 0.75675447,174.2797 -4.7136675,168.86885 -7.8886635,161.74702 c -2.2435955,-5.0326 -3.2108515,-11.98686 -2.6476465,-19.03569 0.357238,-4.47103 1.0853195,-7.16168 2.9772385,-11.0025 4.165216,-8.45589 10.809403,-13.78103 20.7721395,-16.64833 l 3.439583,-0.98992 0.07174,-5.03054 0.07174,-5.03055 h 6.444406 6.444406 l 0.192834,5.22205 0.192833,5.22207 3.345188,1.21062 c 5.555303,2.01046 8.364861,3.51463 11.610237,6.21581 6.160344,5.12735 9.569572,12.52832 9.589085,20.81658 0.0094,3.99609 -0.856874,6.03653 -2.91243,6.85992 -0.930852,0.37286 -5.062935,0.21289 -6.701176,-0.25944 -1.568342,-0.45218 -3.20524,-2.11614 -5.662713,-5.75632 -4.023593,-5.96004 -4.675048,-6.85071 -6.126152,-8.37572 -1.637903,-1.72134 -2.780245,-2.42562 -3.117377,-1.92195 -0.117398,0.17539 -0.250544,8.78167 -0.295878,19.12505 l -0.08243,18.80614 1.669928,1.02282 c 3.436498,2.10489 6.796387,4.77904 10.013225,7.96962 9.898256,9.81742 14.062826,17.6462 15.321217,28.80167 0.617889,5.47751 0.238495,19.68132 -0.632421,23.67667 -0.95364,4.37485 -3.482631,9.69944 -6.380194,13.43304 -3.815768,4.91669 -8.566973,8.07797 -15.496953,10.31104 -3.408299,1.09828 -4.063193,1.67318 -4.339164,3.80923 -0.2946,2.2802 -0.374237,2.31024 -6.301809,2.37779 -3.004854,0.0342 -5.332145,-0.049 -5.720048,-0.20464 z m 15.777721,-25.25466 c 2.658909,-2.30222 3.970724,-3.92251 5.379725,-6.64484 1.68067,-3.24725 2.410481,-6.35477 2.576947,-10.97262 0.260381,-7.22312 -1.395416,-13.29661 -5.08181,-18.64019 -1.296459,-1.87926 -4.239083,-4.94538 -6.026198,-6.27908 l -0.727604,-0.543 0.01347,19.78422 c 0.01254,18.43492 0.17144,24.79554 0.637601,25.52497 0.228473,0.35749 0.285703,0.31796 3.227869,-2.22946 z M 16.375832,161.38743 c 0.09995,-0.387 0.246964,-7.40408 0.326691,-15.59352 l 0.144958,-14.8899 -1.552618,0.45692 c -2.546921,0.74955 -3.82746,1.52366 -5.9183025,3.57777 -3.613451,3.54995 -4.353298,5.70989 -4.185227,12.21851 0.120595,4.67009 0.262242,5.08066 2.789735,8.08587 1.994175,2.37108 7.2366185,6.84798 8.0189885,6.84798 0.106723,0 0.27582,-0.31664 0.375775,-0.70363 z m 82.694539,134.14344 c 0,-0.11058 1.398989,-1.64023 3.108859,-3.39923 13.75839,-14.15354 23.24453,-27.93051 30.17999,-43.83117 2.29793,-5.26841 5.59522,-13.95831 6.4253,-16.9337 l 0.62457,-2.23883 3.84159,0.003 c 2.11286,0 32.34873,0.12021 67.19078,0.26467 l 63.34922,0.26265 2.55336,1.76291 c 5.21994,3.60405 9.25052,8.87151 12.28222,16.05137 2.12849,5.04081 2.12773,5.03475 2.12625,16.32627 -0.003,11.35842 -0.0718,11.8753 -2.34207,17.21578 -2.7105,6.37616 -5.31982,9.47518 -11.32496,13.4504 l -1.4891,0.98574 -88.26302,0.14112 c -48.54464,0.0771 -88.262989,0.0501 -88.262989,-0.0605 z M 303.70045,256.7987 c 0.55993,-0.60986 0.68659,-0.66559 0.68659,-0.3021 0,0.13578 -0.26789,0.3828 -0.59531,0.54896 -0.59211,0.30049 -0.59262,0.29915 -0.0913,-0.24686 z M 142.56806,216.39861 c 2.24628,-10.67396 2.97519,-20.79622 2.72227,-37.80419 -0.16208,-10.89815 -0.37812,-14.3602 -1.2773,-20.46928 -0.3107,-2.1109 -0.57843,-4.75911 -0.59494,-5.88492 l -0.03,-2.04693 1.98438,-0.22224 c 2.79418,-0.31296 66.75257,-0.24421 76.2,0.0819 4.29286,0.14818 8.53524,0.41955 9.4275,0.60304 2.21512,0.45554 4.27778,1.69923 7.0236,4.2349 3.80849,3.51701 6.80022,8.27712 8.6586,13.77663 1.48367,4.39063 2.13545,11.40735 1.63779,17.63208 -0.38848,4.85928 -0.89439,7.49201 -2.16606,11.27204 -1.94564,5.78337 -4.54816,10.02143 -8.64635,14.08006 -1.92778,1.90919 -4.41126,3.28866 -6.99534,3.88568 -5.24928,1.21272 -17.73436,1.54653 -58.23942,1.55709 l -29.85278,0.008 0.14806,-0.70363 z m -4.04635,-82.10146 c -2.36728,-8.21587 -7.82873,-20.5199 -13.51121,-30.43913 -5.26267,-9.18644 -14.57831,-21.305912 -22.80292,-29.666175 -3.115296,-3.166685 -3.413058,-3.547982 -2.969143,-3.802128 0.672852,-0.385217 147.020093,-0.328777 161.756933,0.06238 11.58087,0.307392 14.01474,0.53632 16.07529,1.512032 6.30762,2.986782 12.7667,12.855694 13.55712,20.714118 0.33126,3.293182 0.32761,16.177933 -0.005,19.235773 -0.32033,2.94113 -1.57123,6.67345 -3.45123,10.29739 -2.9365,5.66044 -6.28052,9.59588 -10.93258,12.86608 l -2.67547,1.88075 -67.08301,0.18842 -67.08304,0.18842 -0.87532,-3.03793 z M 90.20683,57.190574 C 73.54113,56.940949 72.637242,56.820612 68.876312,54.350761 62.448122,50.129287 57.264458,41.108832 55.424766,30.942778 54.143775,23.864101 54.773928,15.70836 57.153281,8.5714775 59.538737,1.4162904 63.183484,-3.1372641 69.697264,-7.1003132 l 3.259251,-1.9829613 h 89.606975 89.607 l 1.96503,1.1993384 c 2.99601,1.8285717 5.15453,3.557581 6.92547,5.5473969 4.25397,4.7797477 7.34385,11.0146923 8.11469,16.3742342 0.36708,2.552189 0.37264,16.008204 0.008,18.847761 -0.53186,4.139471 -3.24728,10.669961 -6.26512,15.06742 -2.08621,3.039933 -5.48531,6.279432 -8.27296,7.884504 l -2.24896,1.294905 -74.6125,0.126239 c -41.03688,0.06943 -80.446565,0.03886 -87.577086,-0.06795 z"
     id="path507" /><text
     xml:space="preserve"
     transform="matrix(0.26458333,0,0,0.26458333,-136.06471,-93.473633)"
     id="text299"
     style="white-space:pre;shape-inside:url(#rect301);display:inline" /><text
     xml:space="preserve"
     transform="matrix(0.26458333,0,0,0.26458333,-136.06471,-93.473633)"
     id="text305"
     style="white-space:pre;shape-inside:url(#rect307);display:inline" /><text
     xml:space="preserve"
     style="font-size:3.175px;fill:#fafafa;stroke-width:0.264583"
     x="-109.45137"
     y="521.3963"
     id="text363"><tspan
       sodipodi:role="line"
       id="tspan361"
       style="font-style:normal;font-variant:normal;font-weight:bold;font-stretch:normal;font-size:141.111px;font-family:sans-serif;-inkscape-font-specification:'sans-serif, Bold';font-variant-ligatures:normal;font-variant-caps:normal;font-variant-numeric:normal;font-variant-east-asian:normal;stroke-width:0.264583;stroke-opacity:1"
       x="-109.45137"
       y="521.3963">Ventas</tspan></text></g></svg>
