<?xml version="1.0" encoding="UTF-8" standalone="no"?>
<!-- Created with Inkscape (http://www.inkscape.org/) -->

<svg
   width="499.92752mm"
   height="501.52396mm"
   viewBox="0 0 499.92752 501.52396"
   version="1.1"
   id="svg433"
   xml:space="preserve"
   inkscape:version="1.2.1 (9c6d41e410, 2022-07-14, custom)"
   sodipodi:docname="1.svg"
   xmlns:inkscape="http://www.inkscape.org/namespaces/inkscape"
   xmlns:sodipodi="http://sodipodi.sourceforge.net/DTD/sodipodi-0.dtd"
   xmlns="http://www.w3.org/2000/svg"
   xmlns:svg="http://www.w3.org/2000/svg"><sodipodi:namedview
     id="namedview435"
     pagecolor="#ffffff"
     bordercolor="#000000"
     borderopacity="0.25"
     inkscape:showpageshadow="2"
     inkscape:pageopacity="0.0"
     inkscape:pagecheckerboard="0"
     inkscape:deskcolor="#d1d1d1"
     inkscape:document-units="mm"
     showgrid="false"
     inkscape:zoom="0.2102413"
     inkscape:cx="910.85813"
     inkscape:cy="913.23635"
     inkscape:window-width="1440"
     inkscape:window-height="831"
     inkscape:window-x="0"
     inkscape:window-y="0"
     inkscape:window-maximized="1"
     inkscape:current-layer="layer1" /><defs
     id="defs430" /><g
     inkscape:label="Capa 1"
     inkscape:groupmode="layer"
     id="layer1"
     transform="translate(136.06471,93.473633)"><path
       style="fill:#000000;stroke-width:0.264583"
       d="m -22.770254,407.84608 c -38.637509,-0.17801 -39.77215,-0.19748 -42.887161,-0.73647 -6.077543,-1.05156 -13.105833,-3.1179 -19.406743,-5.70568 -12.57744,-5.16554 -24.561422,-14.34521 -33.153182,-25.39513 -6.67951,-8.59057 -12.10198,-19.4291 -14.90477,-29.7919 -1.74519,-6.4525 -2.26427,-10.05541 -2.51589,-17.4625 -0.36821,-10.83942 -0.58864,-246.001353 -0.28099,-299.772911 0.26514,-46.341569 0.28951,-47.859253 0.82223,-51.196874 2.86867,-17.972862 11.01757,-34.129069 23.5588,-46.708208 11.5066,-11.541384 26.629962,-19.740539 42.201042,-22.879354 4.908407,-0.989437 8.728173,-1.193387 27.252081,-1.455079 35.1356195,-0.49637 325.133147,-0.05478 333.242707,0.507437 10.98566,0.761615 26.88252,6.952888 37.61632,14.650246 4.49792,3.225523 6.75471,5.138111 10.68311,9.053709 10.48644,10.452322 17.25411,21.989335 21.4263,36.525996 2.33325,8.129383 2.42131,9.344292 2.78921,38.4833774 0.36761,29.1149266 0.15473,321.4945106 -0.2385,327.5541606 -0.8333,12.84108 -7.06882,28.89821 -15.72019,40.48125 -3.68424,4.93271 -9.26798,10.87787 -13.82604,14.72097 -11.2051,9.44753 -24.37551,15.5105 -39.66382,18.25918 l -3.72785,0.67022 -32.54374,0.21704 c -38.35766,0.25579 -223.76332,0.24294 -280.722924,-0.0196 z M 282.8235,365.79813 c 5.42967,-0.2082 6.69512,-0.33774 8.73125,-0.89379 7.38933,-2.01806 12.8429,-5.21049 18.38306,-10.76121 5.2129,-5.22282 7.9596,-9.69441 10.71819,-17.44914 l 1.45812,-4.09893 V 157.3044 -17.986253 l -1.45812,-4.098941 c -2.75859,-7.75471 -5.50529,-12.226298 -10.71819,-17.449117 -5.54061,-5.55117 -10.99767,-8.745495 -18.38306,-10.760623 -2.04528,-0.558064 -3.3518,-0.689962 -9.26042,-0.934876 -9.7283,-0.403241 -327.293965,-0.406133 -336.682292,-0.0031 -5.748274,0.24679 -7.099324,0.385723 -9.128125,0.938668 -4.876861,1.329179 -9.238731,3.373458 -13.189481,6.181518 -2.86871,2.038985 -8.11289,7.319917 -10.17483,10.24614 -3.13503,4.449122 -5.9327,11.057192 -6.66904,15.752204 -0.15945,1.016638 -0.38362,14.7011045 -0.54829,33.469791 -0.35487,40.44724 -0.13571,306.368709 0.25807,313.134369 0.29796,5.11929 0.73024,7.17145 2.42502,11.5125 3.71308,9.51066 11.64917,17.98142 20.90748,22.31604 2.789493,1.30601 5.895749,2.41596 8.313988,2.97082 0.727604,0.16695 4.83526,0.38857 9.128125,0.49244 11.807277,0.28578 328.459675,0.30134 335.888545,0.0164 z M 12.683913,318.9327 c -10.2325935,-0.7809 -20.3294635,-3.7007 -30.639009,-8.86013 -10.402345,-5.20586 -18.479572,-11.21418 -27.573137,-20.5105 -17.086776,-17.46777 -28.352405,-37.93395 -33.988275,-61.74621 -2.68399,-11.3402 -3.42161,-17.89896 -3.63212,-32.29589 -0.20716,-14.16793 0.27866,-20.11442 2.55932,-31.32591 3.61406,-17.76636 10.72089,-35.51023 19.397011,-48.42924 5.732976,-8.53657 15.369019,-19.667529 21.728245,-25.099107 14.028904,-11.982452 33.8245215,-21.121155 50.031298,-23.097093 1.976221,-0.240942 6.13764,-0.35252 12.964584,-0.347609 10.608085,0.0076 13.390118,0.222168 19.020287,1.466752 16.169209,3.574306 35.115966,13.754605 46.96193,25.233158 11.095783,10.751639 23.495293,28.719339 29.391493,42.590189 12.66622,29.79736 14.56141,67.28418 5.00794,99.05678 -10.01207,33.29773 -31.664694,60.43165 -59.371234,74.40083 -13.888974,7.00262 -24.6816,9.32436 -42.8625,9.22078 -3.346979,-0.019 -7.395104,-0.13465 -8.995833,-0.2568 z m 19.965588,-30.28712 c 14.866935,-1.93448 29.492636,-9.22576 41.634653,-20.7559 12.624084,-11.98793 22.448094,-29.50276 27.003586,-48.14361 3.25482,-13.31862 3.6849,-35.26168 0.95225,-48.58565 C 96.447165,142.91552 81.441501,120.48178 59.655604,107.49599 50.036793,101.76256 42.915263,99.143087 33.85058,98.004281 30.341429,97.563422 16.758832,97.55649 12.948496,97.993618 c -9.2546325,1.061694 -16.5514675,3.638102 -25.471482,8.993602 -10.165009,6.10299 -19.412035,14.69125 -26.332204,24.4563 -4.069609,5.74261 -7.969538,12.79768 -10.784255,19.50898 -2.687725,6.40851 -5.72583,16.52289 -6.725235,22.38949 -1.182232,6.93981 -1.11393,32.14381 0.106868,39.43541 1.049843,6.27049 3.332991,14.27231 6.027243,21.12388 12.351747,31.41086 38.89008,53.05674 67.642904,55.17266 3.840284,0.28261 11.408277,0.0699 15.237166,-0.42836 z M 17.850757,274.49519 c -0.864037,-0.35846 -1.056897,-0.7065 -1.061752,-1.91598 -0.0079,-1.95858 -0.425773,-2.27532 -4.921779,-3.73013 -4.8069465,-1.5554 -8.9062425,-4.1924 -13.2040755,-8.49386 -6.677499,-6.68314 -10.1491045,-14.46107 -10.6390925,-23.83629 -0.383767,-7.34282 2.0601285,-17.0988 5.1362225,-20.50365 1.720553,-1.90447 3.388386,-2.30645 5.371607,-1.29468 4.051086,2.06671 5.409512,5.52156 6.085266,15.47651 0.638061,9.39964 1.864783,13.42287 5.106342,16.74699 1.1199675,1.1485 4.1142885,3.32973 5.6436495,4.11115 0.804084,0.41084 0.836274,0.40555 0.988573,-0.16256 0.08658,-0.32298 0.159054,-13.23036 0.161041,-28.68303 l 0.0036,-28.09579 -3.770312,-2.56204 C 0.75675447,183.40206 -4.7136675,177.80686 -7.8886635,170.44239 c -2.2435955,-5.20406 -3.2108515,-12.39525 -2.6476465,-19.68423 0.357238,-4.62336 1.0853195,-7.40568 2.9772385,-11.37736 4.165216,-8.74398 10.809403,-14.25055 20.7721395,-17.21554 l 3.439583,-1.02365 0.07174,-5.20193 0.07174,-5.20194 h 6.444406 6.444406 l 0.192834,5.39997 0.192833,5.39998 3.345188,1.25187 c 5.555303,2.07896 8.364861,3.63437 11.610237,6.42758 6.160344,5.30204 9.569572,12.95516 9.589085,21.5258 0.0094,4.13224 -0.856874,6.2422 -2.91243,7.09364 -0.930852,0.38557 -5.062935,0.22014 -6.701176,-0.26828 -1.568342,-0.46758 -3.20524,-2.18823 -5.662713,-5.95244 -4.023593,-6.16309 -4.675048,-7.08411 -6.126152,-8.66108 -1.637903,-1.77998 -2.780245,-2.50826 -3.117377,-1.98743 -0.117398,0.18137 -0.250544,9.08086 -0.295878,19.77664 l -0.08243,19.44687 1.669928,1.05767 c 3.436498,2.1766 6.796387,4.94186 10.013225,8.24114 9.898256,10.1519 14.062826,18.24741 15.321217,29.78295 0.617889,5.66412 0.238495,20.35186 -0.632421,24.48333 -0.95364,4.5239 -3.482631,10.0299 -6.380194,13.8907 -3.815768,5.08421 -8.566973,8.35319 -15.496953,10.66234 -3.408299,1.1357 -4.063193,1.73019 -4.339164,3.93901 -0.2946,2.35789 -0.374237,2.38895 -6.301809,2.4588 -3.004854,0.0354 -5.332145,-0.0507 -5.720048,-0.21161 z M 33.628478,248.3801 c 2.658909,-2.38065 3.970724,-4.05615 5.379725,-6.87123 1.68067,-3.35788 2.410481,-6.57127 2.576947,-11.34645 0.260381,-7.46921 -1.395416,-13.74963 -5.08181,-19.27526 -1.296459,-1.94329 -4.239083,-5.11387 -6.026198,-6.49301 l -0.727604,-0.5615 0.01347,20.45827 c 0.01254,19.06299 0.17144,25.64032 0.637601,26.3946 0.228473,0.36967 0.285703,0.32879 3.227869,-2.30542 z M 16.375832,170.07055 c 0.09995,-0.40018 0.246964,-7.65634 0.326691,-16.12479 l 0.144958,-15.3972 -1.552618,0.47249 c -2.546921,0.77508 -3.82746,1.57557 -5.9183025,3.69966 -3.613451,3.6709 -4.353298,5.90443 -4.185227,12.6348 0.120595,4.8292 0.262242,5.25375 2.789735,8.36135 1.994175,2.45187 7.2366185,7.08129 8.0189885,7.08129 0.106723,0 0.27582,-0.32742 0.375775,-0.7276 z m 82.694539,138.71371 c 0,-0.11435 1.398989,-1.69611 3.108859,-3.51504 13.75839,-14.63575 23.24453,-28.88211 30.17999,-45.3245 2.29793,-5.44791 5.59522,-14.43387 6.4253,-17.51063 l 0.62457,-2.31511 3.84159,0.003 c 2.11286,0 32.34873,0.1243 67.19078,0.27369 l 63.34922,0.27159 2.55336,1.82298 c 5.21994,3.72684 9.25052,9.17376 12.28222,16.59824 2.12849,5.21255 2.12773,5.20628 2.12625,16.8825 -0.003,11.74541 -0.0718,12.2799 -2.34207,17.80233 -2.7105,6.59339 -5.31982,9.798 -11.32496,13.90865 l -1.4891,1.01933 -88.26302,0.14592 c -48.54464,0.0797 -88.262989,0.0518 -88.262989,-0.0626 z M 303.70045,268.73248 c 0.55993,-0.63063 0.68659,-0.68826 0.68659,-0.31239 0,0.14041 -0.26789,0.39584 -0.59531,0.56766 -0.59211,0.31073 -0.59262,0.30935 -0.0913,-0.25527 z M 142.56806,226.95596 c 2.24628,-11.03762 2.97519,-21.50475 2.72227,-39.09218 -0.16208,-11.26945 -0.37812,-14.84945 -1.2773,-21.16667 -0.3107,-2.18281 -0.57843,-4.92125 -0.59494,-6.08542 l -0.03,-2.11666 1.98438,-0.22982 c 2.79418,-0.32362 66.75257,-0.25253 76.2,0.0847 4.29286,0.15323 8.53524,0.43385 9.4275,0.62359 2.21512,0.47106 4.27778,1.75712 7.0236,4.37918 3.80849,3.63684 6.80022,8.55912 8.6586,14.246 1.48367,4.54022 2.13545,11.796 1.63779,18.23281 -0.38848,5.02483 -0.89439,7.74726 -2.16606,11.65608 -1.94564,5.98041 -4.54816,10.36286 -8.64635,14.55976 -1.92778,1.97424 -4.41126,3.40071 -6.99534,4.01807 -5.24928,1.25404 -17.73436,1.59922 -58.23942,1.61014 l -29.85278,0.008 0.14806,-0.7276 z m -4.04635,-84.89866 c -2.36728,-8.49578 -7.82873,-21.21901 -13.51121,-31.47619 -5.26267,-9.49942 -14.57831,-22.031802 -22.80292,-30.6769 -3.115296,-3.274574 -3.413058,-3.668861 -2.969143,-3.931666 0.672852,-0.398341 147.020093,-0.339979 161.756933,0.06451 11.58087,0.317865 14.01474,0.554593 16.07529,1.563547 6.30762,3.088542 12.7667,13.293688 13.55712,21.419849 0.33126,3.40538 0.32761,16.72912 -0.005,19.89113 -0.32033,3.04134 -1.57123,6.90082 -3.45123,10.64822 -2.9365,5.85329 -6.28052,9.92282 -10.93258,13.30443 l -2.67547,1.94483 -67.08301,0.19484 -67.08304,0.19484 -0.87532,-3.14144 z M 90.20683,62.323706 C 73.54113,62.065576 72.637242,61.941139 68.876312,59.38714 62.448122,55.021841 57.264458,45.694059 55.424766,35.181647 54.143775,27.861799 54.773928,19.428192 57.153281,12.048156 59.538737,4.6491916 63.183484,-0.05950262 69.697264,-4.1575729 l 3.259251,-2.0505208 h 89.606975 89.607 l 1.96503,1.2401999 c 2.99601,1.8908712 5.15453,3.6787878 6.92547,5.73639678 4.25397,4.94259382 7.34385,11.38996302 8.11469,16.93210502 0.36708,2.639142 0.37264,16.553603 0.008,19.489904 -0.53186,4.280503 -3.24728,11.033487 -6.26512,15.580767 -2.08621,3.143504 -5.48531,6.493373 -8.27296,8.15313 l -2.24896,1.339022 -74.6125,0.13054 c -41.03688,0.0718 -80.446565,0.04018 -87.577086,-0.07026 z"
       id="path507" /></g></svg>
