<?xml version="1.0" encoding="UTF-8" standalone="no"?>
<!-- Created with Inkscape (http://www.inkscape.org/) -->

<svg
   width="499.92749mm"
   height="646.11499mm"
   viewBox="0 0 499.92749 646.11499"
   version="1.1"
   id="svg639"
   xml:space="preserve"
   inkscape:version="1.2.1 (9c6d41e410, 2022-07-14, custom)"
   sodipodi:docname="2.svg"
   xmlns:inkscape="http://www.inkscape.org/namespaces/inkscape"
   xmlns:sodipodi="http://sodipodi.sourceforge.net/DTD/sodipodi-0.dtd"
   xmlns="http://www.w3.org/2000/svg"
   xmlns:svg="http://www.w3.org/2000/svg">

	<style
   type="text/css"
   id="style2096">
		<![CDATA[
			path {
				fill:#fafafa;
			}
			text {
				fill:#fafafa
			}
		]]> 
	  </style>

	<sodipodi:namedview
   id="namedview641"
   pagecolor="#000000"
   bordercolor="#000000"
   borderopacity="0.25"
   inkscape:showpageshadow="2"
   inkscape:pageopacity="0.0"
   inkscape:pagecheckerboard="0"
   inkscape:deskcolor="#d1d1d1"
   inkscape:document-units="mm"
   showgrid="false"
   inkscape:zoom="0.2102413"
   inkscape:cx="780.05606"
   inkscape:cy="2187.9621"
   inkscape:window-width="1440"
   inkscape:window-height="831"
   inkscape:window-x="0"
   inkscape:window-y="0"
   inkscape:window-maximized="1"
   inkscape:current-layer="layer1" /><defs
   id="defs636" /><g
   inkscape:label="Capa 1"
   inkscape:groupmode="layer"
   id="layer1"
   transform="translate(155.43342,93.478551)"><path
     style="stroke-width:0.260188"
     d="m -42.138967,391.32393 c -38.637509,-0.17214 -39.77215,-0.19097 -42.887161,-0.7122 -6.077541,-1.01691 -13.105833,-3.01518 -19.406742,-5.5177 -12.57744,-4.99535 -24.56142,-13.87257 -33.15318,-24.55842 -6.67951,-8.30753 -12.10198,-18.78896 -14.90477,-28.81033 -1.74519,-6.23991 -2.26427,-9.72411 -2.51589,-16.88716 -0.36821,-10.48229 -0.58864,-237.896214 -0.28099,-289.896136 0.26514,-44.814731 0.28951,-46.282417 0.82223,-49.510071 2.86867,-17.380699 11.01757,-33.004599 23.5588,-45.169286 11.5066,-11.161125 26.62996,-19.090138 42.201037,-22.125542 4.908409,-0.956831 8.728175,-1.154061 27.252083,-1.407129 35.135619,-0.480016 325.13314,-0.05299 333.2427,0.490712 10.98566,0.736526 26.88252,6.72381 37.61632,14.16756 4.49792,3.11925 6.75471,4.968823 10.68311,8.755411 10.48644,10.107945 17.25411,21.264843 21.4263,35.322556 2.33325,7.861538 2.42131,9.036419 2.78921,37.215449 0.36761,28.155657 0.15473,310.902076 -0.2385,316.762066 -0.8333,12.418 -7.06882,27.9461 -15.72019,39.14749 -3.68424,4.77019 -9.26798,10.51948 -13.82604,14.23596 -11.2051,9.13625 -24.37551,14.99947 -39.66382,17.65758 l -3.72785,0.64814 -32.54375,0.20989 c -38.35765,0.24737 -223.763298,0.23493 -280.722907,-0.019 z M 263.45478,350.66135 c 5.42967,-0.20134 6.69512,-0.32661 8.73125,-0.86434 7.38933,-1.95156 12.8429,-5.03881 18.38306,-10.40665 5.2129,-5.05074 7.9596,-9.37501 10.71819,-16.87424 l 1.45812,-3.96387 V 149.03698 -20.478286 l -1.45812,-3.9639 c -2.75859,-7.499212 -5.50529,-11.823465 -10.71819,-16.874206 -5.54061,-5.368273 -10.99767,-8.457357 -18.38306,-10.40609 -2.04528,-0.539677 -3.3518,-0.66723 -9.26042,-0.904074 -9.7283,-0.389955 -327.293958,-0.392752 -336.682285,-0.003 -5.748274,0.238659 -7.099324,0.373014 -9.128125,0.907741 -4.876858,1.285391 -9.238729,3.262307 -13.189478,5.977849 -2.868713,1.97181 -8.112892,7.078747 -10.174832,9.908555 -3.13503,4.302542 -5.9327,10.692893 -6.66904,15.233214 -0.15945,0.983144 -0.38362,14.2167354 -0.54829,32.367044 -0.35487,39.114605 -0.13571,296.274623 0.25807,302.817373 0.29796,4.95062 0.73024,6.93517 2.42502,11.13319 3.71308,9.19731 11.649166,17.38899 20.907478,21.58079 2.789494,1.26298 5.89575,2.33637 8.313989,2.87293 0.727604,0.16146 4.83526,0.37577 9.128125,0.47623 11.807277,0.27635 328.459668,0.2914 335.888538,0.0159 z M 81.289162,294.35856 c -11.03308,-0.62546 -26.39263,-3.68862 -38.53674,-7.68537 -12.22511,-4.02341 -24.94941,-9.97212 -35.4142996,-16.55639 -17.8757284,-11.247 -32.7490324,-25.34332 -45.1984694,-42.83724 -3.468569,-4.87402 -5.666873,-8.57755 -9.537018,-16.06716 -6.680686,-12.92865 -8.992608,-18.76669 -12.209692,-30.83185 -3.360021,-12.60118 -4.503733,-20.77305 -4.798592,-34.28603 -0.293656,-13.45795 0.578485,-23.62717 2.98436,-34.79778 4.895069,-22.728088 16.223924,-45.974773 31.172917,-63.966485 6.83033,-8.220575 16.673968,-17.682826 25.3811224,-24.397738 C 16.056602,6.7961432 40.780882,-3.8286985 67.528422,-8.1783072 c 8.15375,-1.325945 11.49959,-1.5275948 25.53469,-1.539006 13.748598,-0.011218 16.101058,0.1184929 23.539738,1.2975426 31.28883,4.9594031 62.16206,19.1736726 84.68752,38.9908026 1.99948,1.759078 3.73118,3.198323 3.8482,3.198323 0.26676,0 5.67365,-5.095187 20.3485,-19.175432 14.00487,-13.4374175 16.56117,-15.49440589 19.25563,-15.49440589 2.35607,0 4.65069,1.96707179 5.09612,4.36865969 0.75774,4.0852942 1.01121,88.0054722 0.28001,92.7046082 -0.52769,3.391154 -0.99859,4.140485 -3.98474,6.340825 l -1.71026,1.26022 -48.42828,-0.087 c -53.70634,-0.0965 -50.24823,0.0202 -52.1825,-1.7603 -1.82279,-1.67784 -2.17508,-3.832877 -0.98213,-6.007585 1.5018,-2.737683 4.97806,-6.327953 24.53304,-25.337594 l 10.29872,-10.011498 -3.00916,-2.488274 C 154.97051,41.805668 132.4832,32.040826 107.08603,28.741234 c -3.95603,-0.51397 -5.6295,-0.585367 -13.890628,-0.592649 -9.82944,-0.0087 -11.83098,0.124479 -19.31458,1.284845 -20.30204,3.14793 -40.73583,12.234839 -56.88541,25.296972 -12.2164596,9.880936 -22.4898506,22.444157 -29.652159,36.261316 -6.377866,12.303842 -10.426917,25.744712 -12.051991,40.006712 -0.636058,5.58217 -0.641657,17.35619 -0.01087,22.83776 2.200079,19.11855 8.546963,36.13103 19.3054134,51.74717 10.287267,14.93218 24.1641766,27.41509 40.2689666,36.22368 23.95164,13.10052 52.62955,17.78985 79.507178,13.00079 19.22412,-3.42536 38.28132,-11.79236 52.38761,-23.00062 9.93447,-7.89354 17.9461,-16.35566 24.4644,-25.84005 6.09159,-8.86351 10.00464,-16.56704 14.2965,-28.14526 2.08317,-5.61974 3.75192,-8.70586 5.78747,-10.70311 2.01194,-1.97405 4.93321,-3.75284 7.70684,-4.69271 1.96074,-0.66442 2.409,-0.71682 6.08541,-0.71147 3.59754,0.005 4.16674,0.0701 6.08542,0.69384 3.90678,1.26997 7.31438,3.68844 9.96146,7.06991 4.67325,5.96984 4.80782,11.75884 0.54485,23.43963 -10.48123,28.71924 -29.28276,53.65704 -53.88335,71.46932 -19.85846,14.37875 -43.5538,24.12622 -68.54171,28.19585 -9.93397,1.61789 -26.818678,2.40742 -37.967698,1.7754 z m -7.67292,-114.33867 c -6.12759,-0.18476 -6.83798,-0.36423 -10.73129,-2.71085 -3.71408,-2.23862 -5.63854,-4.40023 -8.02375,-9.01247 l -1.08871,-2.10521 V 132.70529 99.219223 l 1.4931,-2.66069 c 1.87053,-3.333272 2.42821,-4.129069 3.99654,-5.703005 1.4641,-1.469339 3.64416,-2.896032 6.36352,-4.164457 2.45343,-1.14439 6.08348,-1.538851 10.52588,-1.143781 2.6999,0.2401 3.06157,0.341341 5.5345,1.549189 4.68968,2.29059 6.64903,4.276713 9.86673,10.001553 l 1.07963,1.920837 0.19049,21.530261 0.19049,21.53026 3.72903,0.14574 c 2.05098,0.0802 12.080918,0.19842 22.288768,0.2628 l 18.5597,0.11705 1.34618,0.65968 c 5.29788,2.5962 7.82388,4.60401 9.93645,7.89807 2.39705,3.73765 2.62932,4.54809 2.74537,9.57888 0.11914,5.16602 -0.1697,6.46346 -2.21369,9.94362 -2.19871,3.74363 -3.82532,5.17962 -9.11394,8.04605 l -2.51355,1.36232 -29.36875,0.045 c -16.152808,0.0246 -31.809518,-0.0287 -34.792698,-0.11864 z"
     id="path713" /><text
     xml:space="preserve"
     style="font-size:3.56199px;fill:#fafafa;stroke-width:0.296832"
     x="-175.98531"
     y="476.91882"
     id="text363"
     transform="scale(0.89135608,1.1218861)"><tspan
       sodipodi:role="line"
       id="tspan361"
       style="font-style:normal;font-variant:normal;font-weight:bold;font-stretch:normal;font-size:142.479px;font-family:sans-serif;-inkscape-font-specification:'sans-serif, Bold';font-variant-ligatures:normal;font-variant-caps:normal;font-variant-numeric:normal;font-variant-east-asian:normal;stroke-width:0.296832;stroke-opacity:1"
       x="-175.98531"
       y="476.91882">Historial</tspan></text></g></svg>
