<?xml version="1.0" encoding="UTF-8" standalone="no"?>
<!-- Created with Inkscape (http://www.inkscape.org/) -->

<svg
   width="499.92749mm"
   height="501.52396mm"
   viewBox="0 0 499.92749 501.52396"
   version="1.1"
   id="svg639"
   xml:space="preserve"
   inkscape:version="1.2.1 (9c6d41e410, 2022-07-14, custom)"
   sodipodi:docname="2.svg"
   xmlns:inkscape="http://www.inkscape.org/namespaces/inkscape"
   xmlns:sodipodi="http://sodipodi.sourceforge.net/DTD/sodipodi-0.dtd"
   xmlns="http://www.w3.org/2000/svg"
   xmlns:svg="http://www.w3.org/2000/svg">

	<style type="text/css">
		<![CDATA[
			path {
				fill:#fafafa;
			}
		]]> 
	  </style>

	<sodipodi:namedview
     id="namedview641"
     pagecolor="#ffffff"
     bordercolor="#000000"
     borderopacity="0.25"
     inkscape:showpageshadow="2"
     inkscape:pageopacity="0.0"
     inkscape:pagecheckerboard="0"
     inkscape:deskcolor="#d1d1d1"
     inkscape:document-units="mm"
     showgrid="false"
     inkscape:zoom="0.2102413"
     inkscape:cx="986.96116"
     inkscape:cy="913.23635"
     inkscape:window-width="1440"
     inkscape:window-height="831"
     inkscape:window-x="0"
     inkscape:window-y="0"
     inkscape:window-maximized="1"
     inkscape:current-layer="layer1" /><defs
     id="defs636" /><g
     inkscape:label="Capa 1"
     inkscape:groupmode="layer"
     id="layer1"
     transform="translate(155.43342,93.478551)"><path
       style="stroke-width:0.264583"
       d="m -42.138967,407.84116 c -38.637509,-0.17801 -39.77215,-0.19748 -42.887161,-0.73646 -6.077541,-1.05156 -13.105833,-3.11791 -19.406742,-5.70569 -12.57744,-5.16554 -24.56142,-14.34521 -33.15318,-25.39513 -6.67951,-8.59057 -12.10198,-19.4291 -14.90477,-29.7919 -1.74519,-6.4525 -2.26427,-10.05541 -2.51589,-17.4625 -0.36821,-10.83942 -0.58864,-246.001346 -0.28099,-299.772906 0.26514,-46.34157 0.28951,-47.85926 0.82223,-51.19688 2.86867,-17.97286 11.01757,-34.129066 23.5588,-46.708205 11.5066,-11.541384 26.62996,-19.740539 42.201037,-22.879359 4.908409,-0.98943 8.728175,-1.19338 27.252083,-1.45507 35.135619,-0.49637 325.13314,-0.0548 333.2427,0.50743 10.98566,0.76162 26.88252,6.952891 37.61632,14.650249 4.49792,3.225523 6.75471,5.138111 10.68311,9.053709 10.48644,10.452322 17.25411,21.989336 21.4263,36.525996 2.33325,8.12938 2.42131,9.34429 2.78921,38.4833797 0.36761,29.1149203 0.15473,321.4945163 -0.2385,327.5541563 -0.8333,12.84108 -7.06882,28.89822 -15.72019,40.48125 -3.68424,4.93271 -9.26798,10.87787 -13.82604,14.72097 -11.2051,9.44753 -24.37551,15.51051 -39.66382,18.25918 l -3.72785,0.67022 -32.54375,0.21704 c -38.35765,0.2558 -223.763298,0.24294 -280.722907,-0.0196 z M 263.45478,365.79321 c 5.42967,-0.2082 6.69512,-0.33774 8.73125,-0.89379 7.38933,-2.01805 12.8429,-5.21049 18.38306,-10.76121 5.2129,-5.22282 7.9596,-9.69441 10.71819,-17.44914 l 1.45812,-4.09892 V 157.29949 -17.991166 l -1.45812,-4.09895 c -2.75859,-7.75471 -5.50529,-12.22629 -10.71819,-17.44911 -5.54061,-5.55117 -10.99767,-8.7455 -18.38306,-10.760626 -2.04528,-0.558064 -3.3518,-0.689962 -9.26042,-0.934876 -9.7283,-0.403241 -327.293958,-0.406133 -336.682285,-0.0031 -5.748274,0.24679 -7.099324,0.385723 -9.128125,0.938668 -4.876858,1.329184 -9.238729,3.373454 -13.189478,6.181514 -2.868713,2.03899 -8.112892,7.31992 -10.174832,10.24614 -3.13503,4.44913 -5.9327,11.0572 -6.66904,15.75221 -0.15945,1.01664 -0.38362,14.7010997 -0.54829,33.46979 -0.35487,40.44724 -0.13571,306.368706 0.25807,313.134366 0.29796,5.11929 0.73024,7.17145 2.42502,11.5125 3.71308,9.51066 11.649166,17.98143 20.907478,22.31604 2.789494,1.30601 5.89575,2.41597 8.313989,2.97082 0.727604,0.16696 4.83526,0.38857 9.128125,0.49245 11.807277,0.28577 328.459668,0.30133 335.888538,0.0164 z M 81.289162,307.57218 c -11.03308,-0.64677 -26.39263,-3.81429 -38.53674,-7.94721 C 30.527312,295.46448 17.803012,289.3131 7.3381224,282.5045 -10.537606,270.87431 -25.41091,256.29773 -37.860347,238.2078 c -3.468569,-5.04008 -5.666873,-8.86979 -9.537018,-16.61457 -6.680686,-13.36913 -8.992608,-19.40607 -12.209692,-31.88229 -3.360021,-13.03051 -4.503733,-21.48079 -4.798592,-35.45416 -0.293656,-13.91646 0.578485,-24.43215 2.98436,-35.98334 4.895069,-23.502436 16.223924,-47.541136 31.172917,-66.145826 6.83033,-8.50065 16.673968,-18.28528 25.3811224,-25.22897 C 16.056602,10.212504 40.780882,-0.77432625 67.528422,-5.2721262 c 8.15375,-1.37112 11.49959,-1.57964 25.53469,-1.59144 13.748598,-0.0116 16.101058,0.12253 23.539738,1.3417499 31.28883,5.12837005 62.16206,19.8269203 84.68752,40.3192203 1.99948,1.81901 3.73118,3.30729 3.8482,3.30729 0.26676,0 5.67365,-5.26878 20.3485,-19.82874 14.00487,-13.8952303 16.56117,-16.0223003 19.25563,-16.0223003 2.35607,0 4.65069,2.03409 5.09612,4.5175 0.75774,4.2244803 1.01121,91.0038203 0.28001,95.8630563 -0.52769,3.50669 -0.99859,4.28155 -3.98474,6.55686 l -1.71026,1.30315 -48.42828,-0.09 c -53.70634,-0.0998 -50.24823,0.0209 -52.1825,-1.82028 -1.82279,-1.735 -2.17508,-3.96346 -0.98213,-6.21226 1.5018,-2.830956 4.97806,-6.543546 24.53304,-26.200846 l 10.29872,-10.35259 -3.00916,-2.57305 c -19.68301,-16.83039 -42.17032,-26.92792 -67.56749,-30.33993 -3.95603,-0.53148 -5.6295,-0.60531 -13.890628,-0.61284 -9.82944,-0.009 -11.83098,0.12872 -19.31458,1.32862 -20.30204,3.25518 -40.73583,12.65168 -56.88541,26.15884 -12.2164596,10.21758 -22.4898506,23.20883 -29.652159,37.49674 -6.377866,12.723036 -10.426917,26.621836 -12.051991,41.369736 -0.636058,5.77236 -0.641657,17.94752 -0.01087,23.61585 2.200079,19.76992 8.546963,37.36201 19.3054134,53.51019 10.287267,15.44092 24.1641766,28.34913 40.2689666,37.45783 23.95164,13.54685 52.62955,18.39595 79.507178,13.44372 19.22412,-3.54206 38.28132,-12.19412 52.38761,-23.78425 9.93447,-8.16247 17.9461,-16.9129 24.4644,-26.72042 6.09159,-9.16549 10.00464,-17.13148 14.2965,-29.10417 2.08317,-5.8112 3.75192,-9.00247 5.78747,-11.06776 2.01194,-2.04131 4.93321,-3.8807 7.70684,-4.85259 1.96074,-0.68706 2.409,-0.74125 6.08541,-0.73571 3.59754,0.005 4.16674,0.0725 6.08542,0.71748 3.90678,1.31323 7.31438,3.8141 9.96146,7.31078 4.67325,6.17323 4.80782,12.15946 0.54485,24.23822 -10.48123,29.6977 -29.28276,55.48513 -53.88335,73.90428 -19.85846,14.86863 -43.5538,24.9482 -68.54171,29.15648 -9.93397,1.67301 -26.818678,2.48944 -37.967698,1.83589 z m -7.67292,-118.23419 c -6.12759,-0.19106 -6.83798,-0.37664 -10.73129,-2.80321 -3.71408,-2.31489 -5.63854,-4.55015 -8.02375,-9.31953 l -1.08871,-2.17693 v -34.62694 -34.62694 l 1.4931,-2.75134 c 1.87053,-3.446836 2.42821,-4.269746 3.99654,-5.897306 1.4641,-1.5194 3.64416,-2.9947 6.36352,-4.30634 2.45343,-1.18338 6.08348,-1.59128 10.52588,-1.18275 2.6999,0.24828 3.06157,0.35297 5.5345,1.60197 4.68968,2.36863 6.64903,4.42242 9.86673,10.342306 l 1.07963,1.98628 0.19049,22.2638 0.19049,22.26379 3.72903,0.15071 c 2.05098,0.0829 12.080918,0.20518 22.288768,0.27175 l 18.5597,0.12104 1.34618,0.68216 c 5.29788,2.68465 7.82388,4.76086 9.93645,8.16715 2.39705,3.865 2.62932,4.70305 2.74537,9.90524 0.11914,5.34202 -0.1697,6.68367 -2.21369,10.2824 -2.19871,3.87117 -3.82532,5.35609 -9.11394,8.32017 l -2.51355,1.40874 -29.36875,0.0465 c -16.152808,0.0254 -31.809518,-0.0297 -34.792698,-0.12268 z"
       id="path713" /></g></svg>
