<?xml version="1.0" encoding="UTF-8" standalone="no"?>
<!-- Created with Inkscape (http://www.inkscape.org/) -->

<svg
   width="499.92752mm"
   height="646.11548mm"
   viewBox="0 0 499.92752 646.11547"
   version="1.1"
   id="svg5"
   xml:space="preserve"
   sodipodi:docname="3.svg"
   inkscape:version="1.2.1 (9c6d41e410, 2022-07-14, custom)"
   xmlns:inkscape="http://www.inkscape.org/namespaces/inkscape"
   xmlns:sodipodi="http://sodipodi.sourceforge.net/DTD/sodipodi-0.dtd"
   xmlns="http://www.w3.org/2000/svg"
   xmlns:svg="http://www.w3.org/2000/svg">
	<style
   type="text/css"
   id="style4431">
		<![CDATA[
			path {
				fill:#fafafa;
			}
		]]> 
	  </style>
	<sodipodi:namedview
   id="namedview7"
   pagecolor="#000000"
   bordercolor="#000000"
   borderopacity="0.25"
   inkscape:showpageshadow="2"
   inkscape:pageopacity="0.0"
   inkscape:pagecheckerboard="0"
   inkscape:deskcolor="#d1d1d1"
   inkscape:document-units="mm"
   showgrid="false"
   inkscape:zoom="0.2102413"
   inkscape:cx="1036.9038"
   inkscape:cy="2354.4375"
   inkscape:window-width="1440"
   inkscape:window-height="831"
   inkscape:window-x="0"
   inkscape:window-y="0"
   inkscape:window-maximized="1"
   inkscape:current-layer="layer1" /><defs
   id="defs2" /><g
   inkscape:label="Capa 1"
   inkscape:groupmode="layer"
   id="layer1"
   transform="translate(169.61585,102.96625)"><path
     style="stroke-width:0.260188"
     d="m -56.321394,381.83623 c -38.637509,-0.17214 -39.77215,-0.19097 -42.887158,-0.7122 -6.077538,-1.01691 -13.105838,-3.01518 -19.406738,-5.5177 -12.57745,-4.99535 -24.56143,-13.87257 -33.15319,-24.55842 -6.67951,-8.30753 -12.10198,-18.78896 -14.90477,-28.81033 -1.74519,-6.23991 -2.26427,-9.72411 -2.51589,-16.88716 -0.36821,-10.48229 -0.58864,-237.896215 -0.28099,-289.896135 0.26514,-44.81473 0.28951,-46.28241 0.82223,-49.510065 2.86867,-17.380701 11.01757,-33.004602 23.5588,-45.16929 11.5066,-11.161119 26.62997,-19.090137 42.20104,-22.12554 4.908409,-0.95684 8.728175,-1.15407 27.252083,-1.40713 35.135617,-0.48002 325.133147,-0.053 333.242707,0.49071 10.98566,0.73652 26.88252,6.723811 37.61632,14.167561 4.49792,3.119251 6.75471,4.968824 10.68311,8.755412 10.48644,10.107945 17.25411,21.264842 21.4263,35.322556 2.33325,7.86154 2.42131,9.036421 2.78921,37.2154464 0.36761,28.1556626 0.15473,310.9020746 -0.2385,316.7620646 -0.8333,12.418 -7.06882,27.9461 -15.72019,39.14749 -3.68424,4.77019 -9.26798,10.51948 -13.82604,14.23596 -11.2051,9.13625 -24.37551,14.99947 -39.66382,17.65758 l -3.72785,0.64814 -32.54375,0.20989 C 186.04387,382.10244 0.63820987,382.09 -56.321394,381.83611 Z M 249.27236,341.17365 c 5.42967,-0.20134 6.69512,-0.32661 8.73125,-0.86434 7.38933,-1.95156 12.8429,-5.03881 18.38306,-10.40665 5.2129,-5.05074 7.9596,-9.37501 10.71819,-16.87424 l 1.45812,-3.96387 V 139.54928 -29.965987 l -1.45812,-3.963892 c -2.75859,-7.499211 -5.50529,-11.823472 -10.71819,-16.874212 -5.54061,-5.368273 -10.99767,-8.457353 -18.38306,-10.406087 -2.04528,-0.539677 -3.3518,-0.66723 -9.26042,-0.904074 -9.7283,-0.389956 -327.293965,-0.392752 -336.682292,-0.003 -5.748274,0.238659 -7.099324,0.373014 -9.128125,0.907741 -4.876853,1.285386 -9.238723,3.262311 -13.189473,5.977852 -2.86872,1.971806 -8.11289,7.078744 -10.17483,9.908556 -3.13503,4.302534 -5.93271,10.692885 -6.66905,15.233208 -0.15945,0.983142 -0.38362,14.21674 -0.54829,32.3670456 -0.35487,39.1146044 -0.13571,296.2746194 0.25807,302.8173694 0.29796,4.95062 0.73024,6.93517 2.42502,11.13319 3.71309,9.19731 11.64917,17.38899 20.90748,21.58079 2.7895,1.26298 5.895751,2.33637 8.31399,2.87293 0.727604,0.16146 4.83526,0.37577 9.128125,0.47623 11.807277,0.27635 328.459675,0.2914 335.888545,0.0159 z M -52.08806,255.47736 c -11.472781,-1.79679 -21.928516,-9.23972 -27.195791,-19.35936 -3.808963,-7.31789 -4.770972,-15.94505 -2.709905,-24.30205 1.641623,-6.65627 4.479042,-11.26703 10.228792,-16.62166 3.166909,-2.94929 5.243663,-4.48054 7.97088,-5.87719 5.439688,-2.78574 8.962636,-3.65 15.807065,-3.8779 5.732632,-0.19086 8.583849,0.12225 12.201349,1.33994 11.45066,3.85439 20.25071,12.30756 23.50595,22.57941 1.34903,4.25684 1.70803,6.6456 1.71752,11.42817 0.009,4.64118 -0.15533,5.74948 -1.4771,9.94986 -3.9122,12.4323 -14.99405,22.10408 -27.89227,24.34319 -2.681454,0.4655 -10.160934,0.71011 -12.15649,0.39759 z m 9.881732,-10.25948 c 4.817168,-0.60481 9.347748,-2.87243 13.283358,-6.64848 2.65137,-2.54387 3.84534,-4.11283 5.37217,-7.05941 4.79007,-9.24423 3.27187,-19.90015 -3.9782,-27.92207 -2.97161,-3.28796 -8.11354,-6.32191 -12.7851,-7.54372 -1.936688,-0.50653 -2.855137,-0.58601 -6.614585,-0.57242 -3.961916,0.0143 -4.580493,0.0795 -6.689154,0.70486 -7.246244,2.14904 -13.402746,7.184 -16.581456,13.56077 -7.290559,14.62555 2.092214,32.4653 18.598483,35.36182 2.272835,0.39884 6.715885,0.45496 9.394484,0.11865 z M 50.1734,240.1143 41.30986,239.97667 39.2749,239.1275 c -4.83182,-2.0163 -8.48835,-5.47478 -10.95228,-10.35914 -1.56213,-3.09667 -1.77844,-4.33563 -1.63663,-9.37432 0.13272,-4.71597 0.38599,-5.68897 2.25739,-8.67224 2.457,-3.91677 5.81832,-6.88919 10.03252,-8.87175 l 2.44199,-1.14881 h 91.16697 91.16695 l 2.17694,1.05312 c 2.98823,1.44559 5.01727,2.8897 7.24104,5.15363 3.40413,3.46558 4.8963,6.6641 5.36731,11.50494 0.55414,5.69521 -0.89127,10.54843 -4.34888,14.60214 -2.05882,2.41378 -4.32363,4.07924 -7.91162,5.81795 l -3.15201,1.52745 -82.04382,-0.0542 C 95.95666,240.27634 55.04835,240.18998 50.1734,240.1143 Z M -54.132938,174.09601 c -11.169689,-2.2775 -20.452164,-9.33388 -25.344871,-19.26673 -2.637099,-5.35365 -3.546599,-9.79668 -3.363558,-16.4314 0.112231,-4.06811 0.220398,-4.94897 0.926872,-7.54805 1.324428,-4.87248 3.1866,-8.65498 6.193275,-12.57996 5.271942,-6.88212 13.685615,-11.97344 22.143918,-13.39985 4.598866,-0.77555 12.382976,-0.35855 17.231952,0.92313 5.4355,1.43672 11.62323,5.22795 16.12743,9.88129 4.74969,4.90697 7.92898,10.75716 9.18222,16.89613 0.63915,3.13088 0.63915,10.82654 0,13.95742 -1.36466,6.68474 -4.70946,12.53388 -10.21189,17.85779 -5.98341,5.78927 -12.36286,8.88855 -20.47472,9.94706 -3.316435,0.43275 -9.726633,0.31043 -12.410628,-0.23683 z m 12.892794,-9.90812 c 6.728024,-1.43891 14.255424,-6.92821 17.295874,-12.61291 2.89684,-5.41619 3.89671,-11.63955 2.67206,-16.63129 -1.6045,-6.54 -3.9379,-10.52345 -8.22951,-14.04897 -5.47885,-4.50082 -10.74693,-6.49427 -17.162382,-6.49427 -7.219807,0 -13.565547,2.65061 -18.680329,7.80274 -4.796113,4.83116 -7.248838,10.70039 -7.248838,17.34609 0,6.64554 2.452738,12.51495 7.248549,17.34579 6.372553,6.41909 15.407936,9.15274 24.104576,7.29282 z m 94.853124,-4.69698 c -10.77195,-0.17752 -11.01543,-0.19298 -12.83736,-0.81478 -6.19428,-2.11406 -10.4593,-6.01311 -13.15049,-12.02208 -0.80003,-1.78632 -0.83717,-2.02572 -0.94358,-6.08131 -0.1323,-5.04219 0.10394,-6.48428 1.52131,-9.28674 2.71728,-5.37266 7.21449,-9.20183 12.84241,-10.93472 1.76711,-0.54411 2.47725,-0.58103 15.47813,-0.8046 7.49432,-0.12888 47.55885,-0.18845 89.03229,-0.13239 84.65513,0.11443 76.99859,-0.0807 81.49167,2.07775 4.43254,2.12946 7.37142,5.01076 9.69716,9.5072 1.26169,2.43928 1.3502,2.74307 1.6214,5.56508 0.20619,2.14556 0.20608,3.82543 0,5.9737 -0.27565,2.86838 -0.34603,3.10302 -1.7471,5.82606 -1.02672,1.99544 -1.94313,3.34732 -3.08854,4.55616 -1.89534,2.00026 -5.58866,4.66372 -7.36409,5.31063 -1.88711,0.68761 -5.11744,1.00653 -12.90622,1.27411 -8.10276,0.2784 -142.61979,0.26654 -159.64662,-0.0141 z M -53.940144,93.385608 c -3.874447,-0.732924 -10.859397,-3.734665 -13.890625,-5.969414 -2.546313,-1.877247 -7.924128,-7.384406 -9.625139,-9.85664 -2.077331,-3.019174 -3.526793,-6.146217 -4.396634,-9.485233 -1.850875,-7.10484 -1.715778,-13.884336 0.397018,-19.923473 l 0.634656,-1.814075 -2.268355,-2.328112 c -2.656245,-2.726224 -4.3736,-4.989514 -4.872908,-6.421969 -0.196639,-0.564136 -0.348351,-1.999537 -0.33804,-3.198325 0.02633,-3.061772 0.740802,-4.764258 2.851457,-6.794684 2.193671,-2.110289 4.058782,-2.800291 7.569343,-2.800291 2.300555,0 2.667825,0.07104 4.233333,0.818848 0.942824,0.450368 2.523591,1.51541 3.512812,2.366761 0.989222,0.851353 1.908027,1.547912 2.041792,1.547912 0.133763,0 2.241431,-0.907592 4.683705,-2.016871 7.38124,-3.352553 9.868318,-3.952426 16.346752,-3.942762 5.956387,0.0089 9.721037,0.725839 14.407067,2.743733 3.10614,1.337565 3.09432,1.336567 4.06154,0.34287 0.46529,-0.47802 5.18746,-5.870483 10.49371,-11.983246 C -6.0482501,0.78864652 -2.3943401,-3.3087634 0.29277987,-5.9531529 2.7803999,-8.4012096 3.9003199,-8.8529817 7.4812899,-8.8529817 c 4.1620001,0 7.0998801,1.8155811 9.0214501,5.5751659 0.94071,1.840523 0.99462,2.0789543 0.99462,4.3994668 0,2.3344673 -0.0433,2.5226234 -0.89289,3.8788411 C 15.37317,6.9660774 7.4677299,16.474793 -4.4171901,30.285466 -12.02646,39.127697 -14.39547,42.040617 -14.30028,42.437657 c 0.0689,0.287222 0.67069,1.988613 1.33741,3.78087 1.86519,5.013965 2.36646,7.703479 2.37317,12.732973 0.008,6.166646 -0.96096,10.143 -3.80421,15.607824 -1.69194,3.251967 -3.57493,5.777568 -6.46015,8.664824 -5.2787,5.28243 -11.18594,8.506349 -18.14369,9.902049 -2.799056,0.56148 -12.459036,0.729186 -14.942394,0.259411 z m 10.054167,-9.641709 c 10.657317,-1.257732 19.576107,-8.892771 22.385437,-19.163348 0.86092,-3.147394 0.88009,-8.33366 0.0402,-10.874304 -0.32565,-0.985083 -0.68908,-1.934119 -0.80762,-2.108967 -0.14661,-0.216251 -1.52232,1.214371 -4.30218,4.473901 -11.1629,13.089031 -14.416226,16.414416 -16.700533,17.070431 -1.626042,0.466973 -5.414282,0.51921 -6.878902,0.09486 -1.37664,-0.398862 -4.649695,-3.084017 -11.684135,-9.585456 -9.590357,-8.863691 -10.267336,-9.331493 -10.649932,-7.359268 -0.279333,1.439908 0.06169,6.974775 0.532046,8.635289 2.749571,9.706867 11.902395,17.565816 21.927762,18.827977 2.408549,0.30323 3.490896,0.30127 6.137854,-0.0111 z m 0.150371,-39.248826 c 2.050214,-2.392347 4.507986,-5.362132 5.461716,-6.59952 1.64285,-2.131461 1.70786,-2.268501 1.23599,-2.605303 -1.35387,-0.966326 -7.42017,-1.801437 -11.478285,-1.580146 -3.384302,0.184548 -4.851199,0.575691 -8.544116,2.278246 l -2.855574,1.316515 6.028955,5.834453 c 3.315928,3.208948 6.117765,5.805432 6.226307,5.769965 0.10854,-0.03547 1.874795,-2.021863 3.925007,-4.41421 z M 57.84632,78.376059 C 40.38788,78.210611 40.96933,78.266077 37.48637,76.433826 c -3.95904,-2.082688 -6.9652,-5.099877 -8.87826,-8.910816 -1.41373,-2.816238 -1.94724,-4.692879 -2.16053,-7.599767 -0.3944,-5.375266 1.84607,-11.448122 5.57562,-15.11288 1.83484,-1.802962 3.79022,-3.089128 7.24457,-4.765181 l 2.72041,-1.319946 90.14835,0.07379 c 85.57426,0.07003 90.22887,0.09692 91.73583,0.529729 5.51172,1.583028 10.30253,5.568033 13.0071,10.819385 1.08664,2.109866 1.2255,2.59224 1.48923,5.173725 0.44088,4.315231 -0.003,8.830237 -1.0914,11.138368 -1.10326,2.336468 -2.76942,4.540073 -4.97491,6.579598 -2.17011,2.006804 -3.49403,2.902457 -6.31336,4.271079 l -2.11666,1.027522 -75.14167,0.09341 c -41.32792,0.05138 -82.22589,0.02627 -90.88437,-0.05578 z"
     id="path595" /><text
     xml:space="preserve"
     style="font-size:3.175px;fill:#fafafa;stroke-width:0.264583"
     x="-93.631546"
     y="511.90366"
     id="text363"><tspan
       sodipodi:role="line"
       id="tspan361"
       style="font-style:normal;font-variant:normal;font-weight:bold;font-stretch:normal;font-size:141.111px;font-family:sans-serif;-inkscape-font-specification:'sans-serif, Bold';font-variant-ligatures:normal;font-variant-caps:normal;font-variant-numeric:normal;font-variant-east-asian:normal;stroke-width:0.264583;stroke-opacity:1"
       x="-93.631546"
       y="511.90366">Lista</tspan></text></g></svg>
