<?xml version="1.0" encoding="UTF-8" standalone="no"?>
<!-- Created with Inkscape (http://www.inkscape.org/) -->

<svg
   width="499.92752mm"
   height="501.52396mm"
   viewBox="0 0 499.92752 501.52395"
   version="1.1"
   id="svg5"
   xml:space="preserve"
   sodipodi:docname="3.svg"
   inkscape:version="1.2.1 (9c6d41e410, 2022-07-14, custom)"
   xmlns:inkscape="http://www.inkscape.org/namespaces/inkscape"
   xmlns:sodipodi="http://sodipodi.sourceforge.net/DTD/sodipodi-0.dtd"
   xmlns="http://www.w3.org/2000/svg"
   xmlns:svg="http://www.w3.org/2000/svg"><sodipodi:namedview
     id="namedview7"
     pagecolor="#ffffff"
     bordercolor="#000000"
     borderopacity="0.25"
     inkscape:showpageshadow="2"
     inkscape:pageopacity="0.0"
     inkscape:pagecheckerboard="0"
     inkscape:deskcolor="#d1d1d1"
     inkscape:document-units="mm"
     showgrid="false"
     inkscape:zoom="0.2102413"
     inkscape:cx="1039.282"
     inkscape:cy="951.28787"
     inkscape:window-width="1440"
     inkscape:window-height="831"
     inkscape:window-x="0"
     inkscape:window-y="0"
     inkscape:window-maximized="1"
     inkscape:current-layer="layer1" /><defs
     id="defs2" /><g
     inkscape:label="Capa 1"
     inkscape:groupmode="layer"
     id="layer1"
     transform="translate(169.61585,102.96625)"><path
       style="fill:#000000;stroke-width:0.264583"
       d="m -56.321394,398.35346 c -38.637509,-0.17801 -39.77215,-0.19748 -42.887158,-0.73646 -6.077538,-1.05156 -13.105838,-3.11791 -19.406738,-5.70569 -12.57745,-5.16554 -24.56143,-14.34521 -33.15319,-25.39513 -6.67951,-8.59057 -12.10198,-19.4291 -14.90477,-29.7919 -1.74519,-6.4525 -2.26427,-10.05541 -2.51589,-17.4625 -0.36821,-10.83942 -0.58864,-246.001347 -0.28099,-299.772905 0.26514,-46.341569 0.28951,-47.859253 0.82223,-51.196874 2.86867,-17.972862 11.01757,-34.129069 23.5588,-46.708208 11.5066,-11.541379 26.62997,-19.740539 42.20104,-22.879363 4.908409,-0.98943 8.728175,-1.19338 27.252083,-1.45507 35.135617,-0.49637 325.133147,-0.0548 333.242707,0.50743 10.98566,0.76162 26.88252,6.952894 37.61632,14.650253 4.49792,3.225523 6.75471,5.138111 10.68311,9.053709 10.48644,10.452322 17.25411,21.989335 21.4263,36.525996 2.33325,8.129383 2.42131,9.344292 2.78921,38.4833772 0.36761,29.1149268 0.15473,321.4945148 -0.2385,327.5541548 -0.8333,12.84108 -7.06882,28.89822 -15.72019,40.48125 -3.68424,4.93271 -9.26798,10.87787 -13.82604,14.72097 -11.2051,9.44753 -24.37551,15.51051 -39.66382,18.25918 l -3.72785,0.67022 -32.54375,0.21704 c -38.35765,0.2558 -223.76331013,0.24294 -280.722914,-0.0196 z M 249.27236,356.30551 c 5.42967,-0.2082 6.69512,-0.33774 8.73125,-0.89379 7.38933,-2.01805 12.8429,-5.21049 18.38306,-10.76121 5.2129,-5.22282 7.9596,-9.69441 10.71819,-17.44914 l 1.45812,-4.09892 V 147.81179 -27.478867 l -1.45812,-4.098941 c -2.75859,-7.75471 -5.50529,-12.226298 -10.71819,-17.449117 -5.54061,-5.55117 -10.99767,-8.745495 -18.38306,-10.760623 -2.04528,-0.558064 -3.3518,-0.689962 -9.26042,-0.934876 -9.7283,-0.403241 -327.293965,-0.406133 -336.682292,-0.0031 -5.748274,0.24679 -7.099324,0.385723 -9.128125,0.938668 -4.876853,1.329179 -9.238723,3.373458 -13.189473,6.181518 -2.86872,2.038985 -8.11289,7.319917 -10.17483,10.24614 -3.13503,4.449122 -5.93271,11.057192 -6.66905,15.752204 -0.15945,1.016638 -0.38362,14.701105 -0.54829,33.4697914 -0.35487,40.4472396 -0.13571,306.3687026 0.25807,313.1343626 0.29796,5.11929 0.73024,7.17145 2.42502,11.5125 3.71309,9.51066 11.64917,17.98143 20.90748,22.31604 2.7895,1.30601 5.895751,2.41597 8.31399,2.97082 0.727604,0.16696 4.83526,0.38857 9.128125,0.49245 11.807277,0.28577 328.459675,0.30133 335.888545,0.0164 z M -52.08806,267.68954 c -11.472781,-1.85801 -21.928516,-9.55452 -27.195791,-20.01893 -3.808963,-7.56721 -4.770972,-16.4883 -2.709905,-25.13002 1.641623,-6.88305 4.479042,-11.6509 10.228792,-17.18796 3.166909,-3.04978 5.243663,-4.6332 7.97088,-6.07743 5.439688,-2.88065 8.962636,-3.77436 15.807065,-4.01002 5.732632,-0.19736 8.583849,0.12641 12.201349,1.38559 11.45066,3.98571 20.25071,12.72688 23.50595,23.34869 1.34903,4.40187 1.70803,6.87202 1.71752,11.81753 0.009,4.79931 -0.15533,5.94537 -1.4771,10.28885 -3.9122,12.85587 -14.99405,22.85717 -27.89227,25.17257 -2.681454,0.48135 -10.160934,0.7343 -12.15649,0.41113 z m 9.881732,-10.60902 c 4.817168,-0.62542 9.347748,-2.97029 13.283358,-6.87499 2.65137,-2.63054 3.84534,-4.25296 5.37217,-7.29993 4.79007,-9.55918 3.27187,-20.57815 -3.9782,-28.87337 -2.97161,-3.39998 -8.11354,-6.5373 -12.7851,-7.80074 -1.936688,-0.52379 -2.855137,-0.60597 -6.614585,-0.59192 -3.961916,0.0148 -4.580493,0.0822 -6.689154,0.72887 -7.246244,2.22226 -13.402746,7.42876 -16.581456,14.02279 -7.290559,15.12384 2.092214,33.57139 18.598483,36.5666 2.272835,0.41243 6.715885,0.47046 9.394484,0.12269 z m 92.379728,-5.27746 -8.86354,-0.14232 -2.03496,-0.8781 c -4.83182,-2.08499 -8.48835,-5.66131 -10.95228,-10.71208 -1.56213,-3.20217 -1.77844,-4.48334 -1.63663,-9.6937 0.13272,-4.87664 0.38599,-5.88279 2.25739,-8.9677 2.457,-4.05022 5.81832,-7.12391 10.03252,-9.17401 l 2.44199,-1.18795 h 91.16697 91.16695 l 2.17694,1.089 c 2.98823,1.49484 5.01727,2.98815 7.24104,5.32921 3.40413,3.58365 4.8963,6.89115 5.36731,11.89691 0.55414,5.88925 -0.89127,10.90782 -4.34888,15.09964 -2.05882,2.49602 -4.32363,4.21822 -7.91162,6.01617 l -3.15201,1.57949 -82.04382,-0.0561 c -45.12411,-0.0309 -86.03242,-0.1202 -90.90737,-0.19846 z M -54.132938,183.53553 c -11.169689,-2.3551 -20.452164,-9.65189 -25.344871,-19.92315 -2.637099,-5.53605 -3.546599,-10.13045 -3.363558,-16.99122 0.112231,-4.20671 0.220398,-5.11758 0.926872,-7.80521 1.324428,-5.03849 3.1866,-8.94986 6.193275,-13.00856 5.271942,-7.11659 13.685615,-12.38138 22.143918,-13.85638 4.598866,-0.80198 12.382976,-0.37077 17.231952,0.95458 5.4355,1.48567 11.62323,5.40606 16.12743,10.21794 4.74969,5.07415 7.92898,11.12366 9.18222,17.47178 0.63915,3.23755 0.63915,11.1954 0,14.43295 -1.36466,6.91249 -4.70946,12.96091 -10.21189,18.46621 -5.98341,5.98651 -12.36286,9.19138 -20.47472,10.28596 -3.316435,0.44749 -9.726633,0.321 -12.410628,-0.2449 z m 12.892794,-10.24569 c 6.728024,-1.48794 14.255424,-7.16426 17.295874,-13.04264 2.89684,-5.60072 3.89671,-12.03611 2.67206,-17.19791 -1.6045,-6.76282 -3.9379,-10.88199 -8.22951,-14.52762 -5.47885,-4.65417 -10.74693,-6.71553 -17.162382,-6.71553 -7.219807,0 -13.565547,2.74091 -18.680329,8.06858 -4.796113,4.99575 -7.248838,11.06495 -7.248838,17.93707 0,6.87195 2.452738,12.94133 7.248549,17.93676 6.372553,6.63779 15.407936,9.46457 24.104576,7.54129 z m 94.853124,-4.85701 c -10.77195,-0.18357 -11.01543,-0.19955 -12.83736,-0.84254 -6.19428,-2.18609 -10.4593,-6.21798 -13.15049,-12.43167 -0.80003,-1.84718 -0.83717,-2.09474 -0.94358,-6.2885 -0.1323,-5.21398 0.10394,-6.7052 1.52131,-9.60314 2.71728,-5.55571 7.21449,-9.51534 12.84241,-11.30727 1.76711,-0.56265 2.47725,-0.60082 15.47813,-0.83201 7.49432,-0.13327 47.55885,-0.19487 89.03229,-0.1369 84.65513,0.11833 76.99859,-0.0835 81.49167,2.14854 4.43254,2.20201 7.37142,5.18148 9.69716,9.83111 1.26169,2.52239 1.3502,2.83653 1.6214,5.75468 0.20619,2.21866 0.20608,3.95576 0,6.17723 -0.27565,2.9661 -0.34603,3.20874 -1.7471,6.02455 -1.02672,2.06342 -1.94313,3.46136 -3.08854,4.71139 -1.89534,2.06841 -5.58866,4.82261 -7.36409,5.49156 -1.88711,0.71104 -5.11744,1.04082 -12.90622,1.31752 -8.10276,0.28789 -142.61979,0.27562 -159.64662,-0.0146 z M -53.940144,100.07532 c -3.874447,-0.757895 -10.859397,-3.861905 -13.890625,-6.172792 -2.546313,-1.941205 -7.924128,-7.635993 -9.625139,-10.192456 -2.077331,-3.122038 -3.526793,-6.355619 -4.396634,-9.808395 -1.850875,-7.346902 -1.715778,-14.357376 0.397018,-20.602267 l 0.634656,-1.87588 -2.268355,-2.407431 c -2.656245,-2.819106 -4.3736,-5.159507 -4.872908,-6.640766 -0.196639,-0.583356 -0.348351,-2.067661 -0.33804,-3.307292 0.02633,-3.166086 0.740802,-4.926576 2.851457,-7.026179 2.193671,-2.182186 4.058782,-2.895696 7.569343,-2.895696 2.300555,0 2.667825,0.07346 4.233333,0.846746 0.942824,0.465712 2.523591,1.56704 3.512812,2.447396 0.989222,0.880359 1.908027,1.60065 2.041792,1.60065 0.133763,0 2.241431,-0.938514 4.683705,-2.085586 7.38124,-3.466775 9.868318,-4.087085 16.346752,-4.077092 5.956387,0.0092 9.721037,0.750568 14.407067,2.837212 3.10614,1.383136 3.09432,1.382104 4.06154,0.354552 0.46529,-0.494307 5.18746,-6.070491 10.49371,-12.391516 C -6.0482501,4.3235779 -2.3943401,0.08656916 0.29277987,-2.6479148 c 2.48762003,-2.531462 3.60754003,-2.998626 7.18851003,-2.998626 4.1620001,0 7.0998801,1.877438 9.0214501,5.76511196 0.94071,1.90322964 0.99462,2.14978424 0.99462,4.54935664 0,2.4140027 -0.0433,2.6085693 -0.89289,4.0109933 C 15.37317,10.711474 7.4677299,20.544152 -4.4171901,34.825355 -12.02646,43.968841 -14.39547,46.981004 -14.30028,47.391571 c 0.0689,0.297008 0.67069,2.056365 1.33741,3.909684 1.86519,5.184791 2.36646,7.965937 2.37317,13.166786 0.008,6.376744 -0.96096,10.488572 -3.80421,16.139583 -1.69194,3.362761 -3.57493,5.97441 -6.46015,8.960035 -5.2787,5.462402 -11.18594,8.79616 -18.14369,10.239412 -2.799056,0.580609 -12.459036,0.754029 -14.942394,0.268249 z m 10.054167,-9.970203 c 10.657317,-1.300583 19.576107,-9.195747 22.385437,-19.816243 0.86092,-3.254626 0.88009,-8.617588 0.0402,-11.244792 -0.32565,-1.018645 -0.68908,-2.000014 -0.80762,-2.18082 -0.14661,-0.223618 -1.52232,1.255745 -4.30218,4.626327 -11.1629,13.534975 -14.416226,16.973656 -16.700533,17.652021 -1.626042,0.482883 -5.414282,0.5369 -6.878902,0.09809 -1.37664,-0.412451 -4.649695,-3.189089 -11.684135,-9.912033 -9.590357,-9.165677 -10.267336,-9.649417 -10.649932,-7.609998 -0.279333,1.488966 0.06169,7.212406 0.532046,8.929494 2.749571,10.03758 11.902395,18.164283 21.927762,19.469446 2.408549,0.313561 3.490896,0.311534 6.137854,-0.01148 z m 0.150371,-40.586034 c 2.050214,-2.473854 4.507986,-5.54482 5.461716,-6.824366 1.64285,-2.20408 1.70786,-2.345788 1.23599,-2.694065 -1.35387,-0.999249 -7.42017,-1.862812 -11.478285,-1.633982 -3.384302,0.190836 -4.851199,0.595305 -8.544116,2.355866 l -2.855574,1.361369 6.028955,6.033233 c 3.315928,3.318277 6.117765,6.003223 6.226307,5.966547 0.10854,-0.03668 1.874795,-2.090748 3.925007,-4.564602 z M 57.84632,84.554395 C 40.38788,84.38331 40.96933,84.440666 37.48637,82.54599 c -3.95904,-2.153645 -6.9652,-5.27363 -8.87826,-9.214408 -1.41373,-2.912187 -1.94724,-4.852765 -2.16053,-7.858691 -0.3944,-5.558401 1.84607,-11.838159 5.57562,-15.627776 1.83484,-1.864389 3.79022,-3.194375 7.24457,-4.927531 l 2.72041,-1.364916 90.14835,0.0763 c 85.57426,0.07242 90.22887,0.100218 91.73583,0.547777 5.51172,1.636961 10.30253,5.757735 13.0071,11.188001 1.08664,2.181749 1.2255,2.680558 1.48923,5.349994 0.44088,4.462251 -0.003,9.131083 -1.0914,11.517852 -1.10326,2.416072 -2.76942,4.694754 -4.97491,6.803766 -2.17011,2.075175 -3.49403,3.001343 -6.31336,4.416594 l -2.11666,1.06253 -75.14167,0.09659 c -41.32792,0.05313 -82.22589,0.02717 -90.88437,-0.05768 z"
       id="path595" /></g></svg>
