<?xml version="1.0" encoding="UTF-8" standalone="no"?>
<!-- Created with Inkscape (http://www.inkscape.org/) -->

<svg
   width="505.2348mm"
   height="646.11505mm"
   viewBox="0 0 505.2348 646.11505"
   version="1.1"
   id="svg739"
   xml:space="preserve"
   inkscape:version="1.2.1 (9c6d41e410, 2022-07-14, custom)"
   sodipodi:docname="4.svg"
   xmlns:inkscape="http://www.inkscape.org/namespaces/inkscape"
   xmlns:sodipodi="http://sodipodi.sourceforge.net/DTD/sodipodi-0.dtd"
   xmlns="http://www.w3.org/2000/svg"
   xmlns:svg="http://www.w3.org/2000/svg">
	<style
   type="text/css"
   id="style10065">
		<![CDATA[
			path {
				fill:#fafafa;
			}
		]]> 
	  </style>
	<sodipodi:namedview
   id="namedview741"
   pagecolor="#000000"
   bordercolor="#000000"
   borderopacity="0.25"
   inkscape:showpageshadow="2"
   inkscape:pageopacity="0.0"
   inkscape:pagecheckerboard="0"
   inkscape:deskcolor="#d1d1d1"
   inkscape:document-units="mm"
   showgrid="false"
   inkscape:zoom="0.2102413"
   inkscape:cx="1022.6345"
   inkscape:cy="1189.1098"
   inkscape:window-width="1440"
   inkscape:window-height="831"
   inkscape:window-x="0"
   inkscape:window-y="0"
   inkscape:window-maximized="1"
   inkscape:current-layer="layer1" /><defs
   id="defs736" /><g
   inkscape:label="Capa 1"
   inkscape:groupmode="layer"
   id="layer1"
   transform="translate(164.75345,138.23212)"><path
     style="stroke-width:0.254868"
     d="m 202.12264,346.40713 c -23.60168,-3.05599 -45.3606,-12.04224 -63.26257,-26.12688 -3.57885,-2.81572 -11.67079,-10.40967 -14.44013,-13.55149 -12.26184,-13.91112 -20.4568,-29.25588 -25.181718,-47.1518 -2.109058,-7.98824 -2.631741,-13.18523 -2.631741,-26.16714 0,-13.13336 0.569862,-18.71535 2.723032,-26.67272 9.058367,-33.47646 31.746307,-60.1431 63.990537,-75.21231 12.47236,-5.82892 26.02717,-9.63508 38.50396,-10.81185 4.5961,-0.43349 23.7853,-0.43426 27.88214,0 17.96467,1.89929 35.73715,7.99446 51.23465,17.57118 15.38014,9.5042 27.79762,21.77027 37.65026,37.1912 2.19203,3.4309 7.0115,12.6979 8.64553,16.62392 1.89769,4.55944 3.88148,10.44851 5.18205,15.38333 2.01019,7.62731 2.51209,12.00925 2.71435,23.6977 0.25092,14.49953 -0.58562,21.55202 -3.85322,32.48449 -5.70746,19.09567 -15.25193,34.66204 -29.95723,48.85828 -10.53447,10.16977 -21.56726,17.80916 -33.77151,23.38428 -13.69399,6.25562 -28.1516,9.73065 -44.25908,10.63811 -6.21581,0.35017 -17.99489,0.27385 -21.16931,-0.13717 z m 25.13184,-26.25683 c 18.27691,-2.27048 34.94593,-9.29353 48.39832,-20.39128 12.88071,-10.62616 22.27743,-23.73909 27.54306,-38.4359 6.67759,-18.63765 6.27229,-39.51788 -1.13588,-58.51981 -1.47548,-3.78457 -5.79777,-12.08671 -8.1368,-15.62889 -13.45486,-20.37585 -35.44966,-34.80119 -60.15906,-39.45548 -4.76725,-0.89796 -7.10778,-1.13439 -12.95931,-1.30909 -8.33412,-0.24879 -19.59202,0.54405 -25.65682,1.8069 -9.60903,2.00084 -21.80358,7.09392 -30.96079,12.9308 -8.65352,5.51584 -17.67372,13.81319 -23.52505,21.63981 -5.77225,7.72087 -10.50749,16.97504 -13.41762,26.22235 -1.72744,5.48912 -2.49076,9.81415 -3.03647,17.20467 -0.34283,4.64292 -0.34479,13.50545 -0.004,16.99611 1.26308,12.92787 6.88732,27.30774 15.28437,39.07862 4.64543,6.51189 12.619,14.72862 18.8758,19.4515 6.64895,5.01884 14.53213,9.44971 21.46794,12.06637 10.3968,3.92237 19.22516,6.07175 27.88217,6.78829 2.912,0.24102 16.51064,-0.0687 19.53989,-0.44497 z m -14.51076,-26.0894 c -4.55719,-1.16253 -8.7174,-4.69459 -9.8764,-8.38515 -0.60407,-1.92352 -0.86716,-7.91981 -1.06994,-24.38595 l -0.18374,-14.92043 -18.22114,-0.13189 c -11.17668,-0.0809 -19.03083,-0.23889 -20.31553,-0.40866 -4.45133,-0.58821 -6.42879,-1.48759 -8.41078,-3.82536 -2.31896,-2.73518 -3.09345,-5.25271 -2.91095,-9.46207 0.14222,-3.28074 0.61425,-4.59504 2.52976,-7.04385 2.14277,-2.73935 3.852,-3.69296 7.87565,-4.39399 2.43682,-0.42456 12.8043,-0.81162 27.88216,-1.04096 l 11.51938,-0.17523 0.1816,-13.0262 c 0.26109,-18.73104 0.67032,-24.62896 1.9038,-27.43913 0.96651,-2.2019 3.17375,-4.25875 6.03055,-5.61965 3.57142,-1.70135 9.24147,-1.55082 12.99459,0.34501 3.48576,1.76079 5.11757,3.85543 5.86926,7.53418 0.56822,2.78071 0.88249,12.01136 0.89322,26.23409 l 0.009,12.09577 3.86162,0.004 c 9.04998,0.009 32.77495,0.51319 34.9768,0.74277 5.49485,0.5729 9.59726,4.03296 11.32311,9.55015 0.65425,2.09143 0.59794,5.49276 -0.12255,7.40429 -0.63343,1.6806 -2.4055,4.13613 -3.92185,5.43443 -2.94682,2.52312 -5.06772,2.7596 -28.44535,3.17168 -8.63954,0.15229 -16.07488,0.32689 -16.52298,0.388 l -0.81476,0.11111 -0.17839,8.74133 c -0.48934,23.97929 -0.80574,29.88452 -1.70504,31.82244 -0.63477,1.36789 -3.23043,3.97311 -5.10774,5.12659 -2.95205,1.81381 -6.73025,2.39791 -10.04349,1.5527 z m -280.709003,37.84265 c -24.117116,-0.15224 -24.816366,-0.17005 -27.751252,-0.70661 -9.456695,-1.72884 -19.699095,-5.17754 -26.756295,-9.00903 -19.93897,-10.82532 -33.94537,-28.14487 -39.61998,-48.99193 -1.5959,-5.86292 -1.98852,-8.5777 -2.23745,-15.47058 -0.37268,-10.31954 -0.58513,-230.715476 -0.27099,-281.117981 0.2652,-42.551028 0.30481,-44.942367 0.79385,-47.932728 2.73,-16.693374 10.90687,-32.077701 23.32233,-43.879701 9.86977,-9.38211 22.18791,-16.31288 35.4781,-19.96169 8.59423,-2.35954 10.919902,-2.5595 33.245525,-2.85841 35.411862,-0.47412 321.541085,-0.0572 329.742455,0.4805 9.29722,0.60951 22.57573,5.0686 32.8301,11.02475 16.35457,9.49939 28.51001,23.95236 34.77324,41.345833 1.55935,4.330492 3.02355,10.025365 3.34312,13.002985 0.70694,6.586381 0.82429,20.906772 0.96617,117.872342 l 0.14737,100.72894 -0.74454,-0.86134 c -5.45296,-6.3086 -14.07831,-14.64679 -19.99539,-19.32965 -5.67845,-4.49402 -13.19244,-9.58964 -18.68389,-12.67055 l -1.9901,-1.11654 -0.008,-89.862183 -0.008,-89.862185 -1.19941,-3.30622 c -3.37405,-9.300693 -8.07045,-15.613323 -15.68697,-21.085561 -4.54253,-3.263678 -11.24422,-5.982702 -16.49367,-6.691839 -4.509,-0.609115 -319.560286,-0.803253 -338.643797,-0.208675 -6.364881,0.198309 -7.472805,0.294685 -9.555855,0.831251 -4.823588,1.242492 -9.158228,3.16844 -13.042878,5.795159 -2.7583,1.865093 -7.48252,6.311091 -9.66608,9.096802 -3.28905,4.196055 -6.25197,10.667086 -7.00104,15.290325 -0.55331,3.414956 -0.75491,47.47878 -0.75427,164.867913 5.3e-4,115.605443 0.2028,161.019723 0.73093,164.194863 0.43937,2.64162 2.03135,6.96429 3.71674,10.09204 5.2813,9.80104 14.35622,16.91494 25.495096,19.98578 2.09728,0.57818 3.05396,0.67395 8.768335,0.87771 3.527813,0.12579 41.841152,0.30618 85.14075149,0.40086 l 78.72654551,0.17215 0.418628,1.01344 c 0.623066,1.50833 5.032044,9.28103 7.144045,12.5944 5.161124,8.09697 11.484052,16.05313 18.155759,22.84542 l 2.61991,2.66727 -75.354829,-0.0506 c -41.4449493,-0.0279 -86.487851,-0.12086 -100.095128,-0.20676 z m 19.504417,-122.49099 c -0.431978,-0.057 -1.710042,-0.32454 -2.840144,-0.59464 -14.103743,-3.37079 -24.508387,-13.81553 -27.292709,-27.39789 -0.610628,-2.97874 -0.622537,-8.8439 -0.02428,-11.95615 0.915917,-4.76474 3.037866,-9.76388 5.594471,-13.18012 1.527622,-2.04126 6.912541,-7.16883 9.378015,-8.92977 3.486835,-2.49049 9.337011,-4.82104 13.875625,-5.52766 3.139829,-0.48886 12.317815,-0.41142 14.651672,0.12362 6.326835,1.4504 13.372037,5.42875 18.360318,10.36787 4.539559,4.49481 7.2285007,9.51766 8.7963704,16.43136 0.740265,3.26426 0.8176615,10.4361 0.142437,13.19845 -1.1965682,4.8952 -3.4656184,9.87841 -6.0950544,13.3857 -1.817905,2.42487 -5.093109,5.59869 -7.711784,7.47311 -2.554446,1.82845 -8.031341,4.46942 -11.195073,5.39831 -1.189552,0.34927 -3.522372,0.80392 -5.184041,1.01035 -2.757336,0.34259 -8.528579,0.45156 -10.455824,0.19746 z m 12.3048,-10.37256 c 7.039627,-1.84638 13.574266,-7.42012 16.558837,-14.12396 1.777891,-3.99346 2.469173,-8.45974 1.917488,-12.38869 -1.485964,-10.58262 -9.626995,-18.86143 -20.701661,-21.05204 -2.922385,-0.57807 -7.954514,-0.49857 -10.603073,0.16748 -9.730986,2.44714 -17.361374,9.87624 -19.380225,18.86904 -0.532816,2.3734 -0.60961,7.05626 -0.150547,9.18038 1.1517,5.32898 4.163983,10.44968 8.160163,13.87179 2.990695,2.56108 7.135303,4.63935 10.864466,5.44788 0.998341,0.21644 2.050789,0.44652 2.338774,0.51128 1.246267,0.2802 9.461685,-0.0808 10.995778,-0.48316 z m 84.824581,-4.58267 c -5.113629,-0.16126 -5.447427,-0.23329 -8.851312,-1.91051 -1.35785,-0.66908 -2.582196,-1.58714 -4.392099,-3.29342 -2.229688,-2.10203 -2.672079,-2.6741 -3.968376,-5.13163 -1.896944,-3.59623 -2.115015,-4.67085 -1.978568,-9.74996 0.0998,-3.7147 0.175163,-4.25728 0.787076,-5.66598 2.083034,-4.79541 5.834883,-8.58548 10.986278,-11.09825 l 2.793365,-1.36255 h 22.959013 22.959012 l -0.485309,0.68233 c -1.938166,2.72498 -6.449111,10.24049 -8.546448,14.23888 -3.31924,6.32789 -5.5893,11.5548 -7.875,18.13249 l -1.872466,5.38851 -8.901344,-0.0406 c -4.89574,-0.0223 -11.02196,-0.10753 -13.613822,-0.18926 z m -96.145599,-63.52374 c -9.283126,-0.91059 -18.492923,-5.89248 -24.224596,-13.10388 -4.843101,-6.09345 -7.284717,-13.0792 -7.284717,-20.842464 0,-4.83892 0.713021,-8.580378 2.41144,-12.653618 4.246836,-10.185006 13.157596,-17.662395 24.521945,-20.577398 2.37062,-0.608072 2.930462,-0.653386 8.173721,-0.661554 5.93687,-0.0093 8.181378,0.251077 11.805812,1.369292 9.700737,2.992879 18.655726,11.014327 22.4591084,20.117775 2.3115559,5.532748 2.9436797,12.567766 1.7245807,19.193147 -1.0662636,5.79477 -4.4873041,11.83619 -9.5116631,16.79721 -5.716469,5.6444 -12.056651,8.84274 -19.798717,9.98753 -3.174563,0.46944 -7.645231,0.63211 -10.276914,0.37396 z m 10.229217,-10.15865 c 6.708856,-1.62614 13.884571,-6.92165 16.780592,-12.38369 1.026869,-1.93672 2.306781,-5.66083 2.771698,-8.06468 0.960234,-4.964919 -0.915907,-12.575597 -4.178833,-16.951681 -2.512889,-3.370166 -7.479572,-7.251417 -11.361269,-8.878354 -9.572332,-4.012034 -20.844988,-1.773745 -28.342604,5.627688 -3.558129,3.512482 -5.762975,7.525312 -6.800117,12.376254 -0.595683,2.786133 -0.401029,7.970123 0.404173,10.763893 2.654881,9.21153 11.052599,16.34531 21.073611,17.90178 2.688171,0.41753 7.044575,0.24097 9.652749,-0.39121 z m 90.75976,-4.49164 c -9.063152,-0.19233 -9.497729,-0.25588 -12.95876,-1.89499 -4.595237,-2.17625 -8.015101,-5.75546 -10.269828,-10.74835 -0.715301,-1.58396 -0.726501,-1.68717 -0.726501,-6.695185 0,-4.832459 0.03152,-5.154565 0.631124,-6.451078 3.434442,-7.426134 9.438878,-11.948125 16.902381,-12.729334 3.961753,-0.414673 172.323561,-0.408793 175.053631,0.0066 6.96829,1.059033 13.06654,5.743699 15.8068,12.14275 0.64494,1.506086 1.26051,5.294704 0.86025,5.294704 -0.0699,0 -1.6464,-0.217515 -3.50333,-0.483373 -7.512,-1.0755 -11.923,-1.355884 -21.44067,-1.36288 -9.2542,-0.0066 -11.7243,0.133408 -19.76621,1.121958 -20.7265,2.547798 -41.39697,9.649698 -59.59286,20.474738 l -2.66883,1.58774 -35.04018,-0.0439 c -19.2721,-0.0241 -38.751258,-0.12263 -43.287017,-0.2189 z M -50.123276,52.268496 c -3.363027,-0.567081 -10.467674,-3.492681 -13.559492,-5.583621 -0.933015,-0.630982 -2.924393,-2.316699 -4.425282,-3.746041 -6.019524,-5.732572 -8.916028,-10.615487 -10.381675,-17.501401 -0.483344,-2.270844 -0.596092,-3.606189 -0.592898,-7.022087 0.0042,-4.510515 0.337175,-6.668293 1.555638,-10.081489 l 0.634268,-1.7767334 -2.495918,-2.5069091 c -3.36169,-3.37649099 -4.428487,-4.96183962 -4.820304,-7.1633583 -0.969409,-5.4468607 2.303658,-9.9953622 7.988111,-11.1008852 3.5367,-0.687826 6.732232,0.273575 9.868732,2.969083 0.959252,0.824377 1.901748,1.4983458 2.094435,1.4977081 0.192691,-7.446e-4 1.822993,-0.6806481 3.622897,-1.5111321 6.738429,-3.109135 9.368613,-3.884971 14.13743,-4.17018 6.344575,-0.37945 11.994413,0.41961 16.57566,2.344305 3.850929,1.617871 3.781995,1.611076 4.824572,0.475569 0.496521,-0.540779 5.158354,-5.784322 10.359633,-11.652319 10.958713,-12.36344 15.26169341,-17.106188 17.939613,-19.773047 2.4819756,-2.471722 3.3441753,-2.805714 7.242949,-2.805714 2.614785,0 3.015377,0.06307 4.352375,0.685345 2.604447,1.212161 4.721495,3.867625 5.464003,6.853632 0.457955,1.841662 0.188176,4.272978 -0.618956,5.578251 -1.275089,2.062031 -9.241499,11.430801 -23.5184534,27.6584964 -4.0028009,4.5497271 -7.2778206,8.4096732 -7.2778206,8.5776597 0,0.1679827 0.485361,1.5257008 1.078582,3.0171477 2.8295799,7.1140162 3.4644922,13.3295922 2.0443848,20.0139182 -1.3259786,6.241271 -4.5271248,11.881006 -9.5241408,16.779493 -5.143501,5.042086 -10.29101,7.900924 -16.899406,9.385641 -2.395421,0.538184 -3.489659,0.629008 -8.508637,0.706225 -3.167831,0.04875 -6.389968,-0.01767 -7.1603,-0.147557 z m 12.720121,-9.900553 c 7.496637,-1.725464 13.732145,-6.532535 17.23075,-13.283512 1.986595,-3.833371 2.588836,-6.302447 2.572081,-10.545026 -0.0111,-2.81253 -0.107914,-3.608185 -0.603768,-4.962365 -0.324798,-0.887023 -0.667976,-1.744334 -0.762618,-1.905137 -0.10392,-0.176568 -1.260884,0.952682 -2.921023,2.851056 -12.351721,14.124222 -15.499027,17.309972 -17.824173,18.041891 -1.636627,0.515182 -5.055792,0.588871 -6.724588,0.144924 -1.430596,-0.380579 -4.143357,-2.537005 -10.999158,-8.743447 -8.84207,-8.004578 -10.336637,-9.16465 -10.99998,-8.538114 -0.332992,0.314514 -0.372854,5.426791 -0.0568,7.283608 1.68072,9.874085 10.992256,18.548021 21.612575,20.132681 2.254764,0.33643 6.976002,0.09901 9.476696,-0.476559 z M -40.573788,5.2030487 c 4.348002,-4.9620947 7.166667,-8.4593422 7.166667,-8.8920076 0,-1.0426153 -4.672014,-1.9420941 -10.079464,-1.9405458 -4.577373,0.00122 -5.586449,0.2206244 -9.898298,2.1512927 l -2.829585,1.266973 5.9691,5.6610736 c 3.283007,3.1135918 6.031706,5.6610763 6.108223,5.6610763 0.07652,0 1.680027,-1.7585378 3.563357,-3.9078622 z m 95.2638,32.4441093 C 43.455013,37.457737 43.643973,37.482437 40.126454,35.743461 c -3.77086,-1.864225 -6.740049,-4.79795 -8.748467,-8.643977 -1.717072,-3.28811 -2.080252,-4.8374 -2.064797,-8.808198 0.01199,-3.081373 0.07942,-3.538344 0.842077,-5.706719 1.508208,-4.2881092 4.058846,-7.6149207 7.570638,-9.8744274 0.834711,-0.537057 2.729619,-1.5527583 4.210905,-2.25711646 l 2.693251,-1.28064753 89.069149,0.0851026 c 66.8958,0.0639184 89.395,0.15748344 90.37815,0.37586752 1.93188,0.42912065 5.79102,2.32683587 7.64398,3.75888447 2.77975,2.1483172 5.51714,5.774975 6.63587,8.7916238 0.45563,1.228528 0.52456,2.047581 0.52456,6.232396 0,4.225379 -0.0673,5.00992 -0.54755,6.378436 -0.79463,2.264568 -2.32086,4.569842 -4.46853,6.749305 -2.18946,2.221902 -4.23771,3.663079 -7.17029,5.045115 l -2.09442,0.987047 -79.85031,0.121578 c -43.91767,0.06687 -84.444956,0.04411 -90.060658,-0.05056 z M -106.85431,10.227443 c 6e-5,-5.7315318 0.0345,-8.04082 0.0762,-5.1317502 0.0419,2.909067 0.0419,7.5985022 -1.2e-4,10.4209672 -0.042,2.822461 -0.0762,0.442315 -0.0761,-5.289217 z"
     id="path799" /><text
     xml:space="preserve"
     style="font-size:2.92662px;fill:#fafafa;stroke-width:0.243885"
     x="-152.32278"
     y="446.89706"
     id="text363"
     transform="scale(0.94195858,1.0616178)"><tspan
       sodipodi:role="line"
       id="tspan361"
       style="font-style:normal;font-variant:normal;font-weight:bold;font-stretch:normal;font-size:130.073px;font-family:sans-serif;-inkscape-font-specification:'sans-serif, Bold';font-variant-ligatures:normal;font-variant-caps:normal;font-variant-numeric:normal;font-variant-east-asian:normal;stroke-width:0.243885;stroke-opacity:1"
       x="-152.32278"
       y="446.89706">Agregar</tspan></text></g></svg>
