<?xml version="1.0" encoding="UTF-8" standalone="no"?>
<!-- Created with Inkscape (http://www.inkscape.org/) -->

<svg
   width="505.2348mm"
   height="517.18451mm"
   viewBox="0 0 505.2348 517.18451"
   version="1.1"
   id="svg739"
   xml:space="preserve"
   inkscape:version="1.2.1 (9c6d41e410, 2022-07-14, custom)"
   sodipodi:docname="4.svg"
   xmlns:inkscape="http://www.inkscape.org/namespaces/inkscape"
   xmlns:sodipodi="http://sodipodi.sourceforge.net/DTD/sodipodi-0.dtd"
   xmlns="http://www.w3.org/2000/svg"
   xmlns:svg="http://www.w3.org/2000/svg">
	<style type="text/css">
		<![CDATA[
			path {
				fill:#fafafa;
			}
		]]> 
	  </style>
	<sodipodi:namedview
     id="namedview741"
     pagecolor="#ffffff"
     bordercolor="#000000"
     borderopacity="0.25"
     inkscape:showpageshadow="2"
     inkscape:pageopacity="0.0"
     inkscape:pagecheckerboard="0"
     inkscape:deskcolor="#d1d1d1"
     inkscape:document-units="mm"
     showgrid="false"
     inkscape:zoom="0.2102413"
     inkscape:cx="1020.2562"
     inkscape:cy="1084.4682"
     inkscape:window-width="1440"
     inkscape:window-height="831"
     inkscape:window-x="0"
     inkscape:window-y="0"
     inkscape:window-maximized="1"
     inkscape:current-layer="layer1" /><defs
     id="defs736" /><g
     inkscape:label="Capa 1"
     inkscape:groupmode="layer"
     id="layer1"
     transform="translate(164.75345,138.23212)"><path
       style="stroke-width:0.264583"
       d="m 206.01707,378.56768 c -23.85222,-3.25879 -45.84211,-12.84136 -63.93411,-27.86065 -3.61685,-3.00257 -11.79467,-11.10046 -14.59341,-14.45077 -12.392,-14.83426 -20.67396,-31.19729 -25.44903,-50.28078 -2.131446,-8.51834 -2.659676,-14.0602 -2.659676,-27.90359 0,-14.00488 0.57591,-19.95729 2.751936,-28.44271 9.15453,-35.69795 32.0833,-64.13418 64.66981,-80.20338 12.60475,-6.21573 26.30344,-10.27446 38.91267,-11.52933 4.64489,-0.46225 24.03779,-0.46307 28.17812,0 18.15537,2.02533 36.1165,8.52498 51.77851,18.73721 15.5434,10.13489 28.09269,23.21494 38.04992,39.65919 2.2153,3.65858 7.08593,13.54053 8.7373,17.72708 1.91784,4.86201 3.92269,11.14187 5.23706,16.40417 2.03153,8.13345 2.53876,12.80618 2.74317,25.27027 0.25358,15.46172 -0.59184,22.98221 -3.89413,34.64015 -5.76805,20.36286 -15.41383,36.96221 -30.27522,52.10051 -10.6463,10.84463 -21.79621,18.99097 -34.13,24.93605 -13.83935,6.67075 -28.45044,10.37638 -44.7289,11.34406 -6.28179,0.37341 -18.1859,0.29202 -21.39402,-0.14628 z m 25.39862,-27.99923 c 18.47091,-2.42115 35.31688,-9.91024 48.91207,-21.74444 13.01744,-11.33131 22.5139,-25.31441 27.83543,-40.9865 6.74847,-19.87444 6.33887,-42.14027 -1.14794,-62.40317 -1.49114,-4.03571 -5.85931,-12.88878 -8.22317,-16.66602 -13.59768,-21.72798 -35.82596,-37.11059 -60.79766,-42.07373 -4.81785,-0.95755 -7.18322,-1.20967 -13.09687,-1.39596 -8.42259,-0.2653 -19.79999,0.58015 -25.92917,1.9268 -9.71103,2.13362 -22.03503,7.56467 -31.28944,13.78889 -8.74538,5.88187 -17.86133,14.72983 -23.77477,23.07582 -5.83353,8.23322 -10.61903,18.1015 -13.56006,27.96246 -1.74577,5.85338 -2.51719,10.46541 -3.06869,18.34637 -0.34647,4.95102 -0.34845,14.40167 -0.004,18.12396 1.27648,13.78577 6.96042,29.11988 15.44661,41.67187 4.69474,6.94402 12.75295,15.70601 19.07617,20.7423 6.71952,5.35189 14.68639,10.07679 21.69583,12.86709 10.50716,4.18266 19.42923,6.47467 28.17813,7.23876 2.94291,0.25702 16.6859,-0.0732 19.74731,-0.4745 z m -14.6648,-27.82068 c -4.60557,-1.23968 -8.80993,-5.00613 -9.98124,-8.94159 -0.61048,-2.05116 -0.87636,-8.44537 -1.0813,-26.0042 l -0.18569,-15.91054 -18.41455,-0.14065 c -11.29533,-0.0863 -19.23285,-0.25474 -20.53119,-0.43577 -4.49858,-0.62725 -6.49703,-1.58631 -8.50006,-4.07921 -2.34357,-2.91669 -3.12629,-5.60128 -2.94185,-10.08997 0.14373,-3.49845 0.62077,-4.89997 2.55662,-7.51128 2.16551,-2.92113 3.89289,-3.93803 7.95925,-4.68558 2.46269,-0.45273 12.94021,-0.86548 28.17813,-1.11004 l 11.64166,-0.18685 0.18352,-13.89062 c 0.26387,-19.97403 0.67744,-26.26333 1.92402,-29.25998 0.97676,-2.34802 3.20744,-4.54136 6.09455,-5.99257 3.60934,-1.81425 9.33958,-1.65373 13.13254,0.3679 3.52276,1.87764 5.17189,4.11128 5.93156,8.03415 0.57425,2.96524 0.89186,12.80843 0.9027,27.97498 l 0.009,12.89844 3.90261,0.004 c 9.14606,0.01 33.12287,0.54724 35.34809,0.79206 5.55318,0.61092 9.69913,4.30059 11.44331,10.18389 0.6612,2.23022 0.60428,5.85726 -0.12385,7.89564 -0.64016,1.79213 -2.43104,4.4106 -3.96348,5.79506 -2.9781,2.69055 -5.12152,2.94273 -28.7473,3.38215 -8.73125,0.1624 -16.24552,0.34858 -16.69838,0.41375 l -0.82341,0.11848 -0.18029,9.3214 c -0.49453,25.57055 -0.81428,31.86766 -1.72313,33.93417 -0.64151,1.45867 -3.26472,4.23677 -5.16196,5.46679 -2.98339,1.93418 -6.8017,2.55704 -10.15011,1.65574 z m -283.688757,40.35388 c -24.373121,-0.16235 -25.079794,-0.18134 -28.045834,-0.75351 -9.557079,-1.84356 -19.908199,-5.52111 -27.040309,-9.60686 -20.15063,-11.54369 -34.30571,-30.01256 -40.04056,-52.24303 -1.61284,-6.25198 -2.00963,-9.14691 -2.2612,-16.4972 -0.37663,-11.00434 -0.59134,-246.025702 -0.27386,-299.772905 0.26802,-45.374705 0.30804,-47.924732 0.80227,-51.113533 2.75899,-17.801142 11.02265,-34.206372 23.5699,-46.791552 9.97454,-10.0047 22.42343,-17.39539 35.8547,-21.28634 8.685463,-2.51612 11.035823,-2.72935 33.598435,-3.04809 35.787762,-0.50559 324.954285,-0.061 333.242705,0.51238 9.39591,0.64996 22.81537,5.40495 33.17859,11.75635 16.52818,10.12977 28.81265,25.54184 35.14236,44.089536 1.57591,4.617863 3.05565,10.690646 3.37862,13.86586 0.71443,7.023452 0.83304,22.294141 0.97642,125.694324 l 0.14893,107.41329 -0.75244,-0.9185 c -5.51085,-6.72724 -14.22776,-15.61875 -20.20764,-20.61236 -5.73873,-4.79224 -13.33248,-10.22601 -18.88222,-13.51137 l -2.01123,-1.19063 -0.008,-95.825415 -0.008,-95.825419 -1.21214,-3.52562 c -3.40987,-9.917885 -8.15612,-16.64942 -15.85349,-22.484794 -4.59075,-3.480255 -11.36358,-6.379713 -16.66875,-7.135908 -4.55686,-0.649536 -322.95245,-0.856557 -342.238535,-0.222523 -6.432445,0.211469 -7.55213,0.314241 -9.657292,0.886413 -4.87479,1.324943 -9.255443,3.378697 -13.181333,6.179724 -2.78757,1.98886 -7.56194,6.729894 -9.76868,9.700464 -3.32396,4.474504 -6.31833,11.374951 -7.07536,16.304987 -0.55919,3.641572 -0.76292,50.629462 -0.76227,175.808511 5.3e-4,123.27699 0.20495,171.70495 0.73868,175.0908 0.44404,2.81691 2.05292,7.42643 3.75619,10.76174 5.33737,10.45144 14.50862,18.03741 25.765736,21.31203 2.119543,0.61655 3.086378,0.71868 8.861412,0.93596 3.56526,0.13414 42.285299,0.3265 86.0445287,0.42746 l 79.5622363,0.18357 0.423071,1.08069 c 0.62968,1.60843 5.08546,9.89692 7.21988,13.43017 5.21591,8.63428 11.605956,17.11841 18.348486,24.36143 l 2.64771,2.84427 -76.154719,-0.0539 c -41.8848919,-0.0297 -87.405929,-0.12888 -101.157648,-0.22048 z m 19.711459,-130.61947 c -0.436563,-0.0608 -1.728195,-0.34607 -2.870293,-0.6341 -14.253456,-3.59447 -24.768546,-14.73232 -27.582424,-29.21601 -0.617109,-3.1764 -0.629145,-9.43078 -0.02453,-12.74955 0.92564,-5.08093 3.070114,-10.41181 5.653858,-14.05475 1.543838,-2.17672 6.985918,-7.64455 9.477563,-9.52235 3.523848,-2.65576 9.436124,-5.14096 14.022917,-5.89447 3.173158,-0.52131 12.448569,-0.43873 14.8072,0.13182 6.393995,1.54665 13.513983,5.789 18.555214,11.05588 4.587748,4.79308 7.3052329,10.14925 8.8897457,17.52174 0.748123,3.48088 0.826341,11.12864 0.143949,14.07429 -1.20927,5.22005 -3.5024056,10.53394 -6.1597537,14.27398 -1.837203,2.58578 -5.147173,5.97022 -7.793646,7.96902 -2.581561,1.94979 -8.116594,4.76601 -11.313909,5.75654 -1.20218,0.37245 -3.559763,0.85727 -5.239071,1.0774 -2.786605,0.36532 -8.619111,0.48152 -10.566813,0.21056 z m 12.435417,-11.06088 c 7.114352,-1.9689 13.718357,-7.91252 16.73461,-15.06122 1.796764,-4.25847 2.495384,-9.02113 1.937843,-13.2108 -1.501738,-11.28488 -9.729187,-20.11307 -20.921412,-22.44905 -2.953406,-0.61643 -8.038952,-0.53166 -10.715625,0.17859 -9.834282,2.60953 -17.545667,10.53163 -19.585948,20.12119 -0.538472,2.5309 -0.616082,7.52451 -0.152146,9.78959 1.163926,5.68261 4.208185,11.14311 8.246785,14.79232 3.022441,2.73103 7.211044,4.94721 10.979793,5.8094 1.008938,0.2308 2.072558,0.47615 2.3636,0.5452 1.259496,0.2988 9.562121,-0.0862 11.1125,-0.51522 z m 85.725001,-4.88677 c -5.16791,-0.17196 -5.505251,-0.24877 -8.945269,-2.0373 -1.372264,-0.71347 -2.609606,-1.69246 -4.438721,-3.51197 -2.253356,-2.24152 -2.700444,-2.85155 -4.010501,-5.47216 -1.917081,-3.83487 -2.137466,-4.98081 -1.999571,-10.39696 0.100852,-3.96121 0.177023,-4.5398 0.795431,-6.04198 2.105146,-5.11363 5.896821,-9.15521 11.102898,-11.83473 l 2.823017,-1.45296 H 69.46402 92.666744 l -0.49046,0.72761 c -1.95874,2.90581 -6.51757,10.92004 -8.63717,15.18377 -3.354474,6.7478 -5.648631,12.32157 -7.958594,19.33575 l -1.892343,5.74609 -8.995833,-0.0433 c -4.947708,-0.0238 -11.138959,-0.11467 -13.758334,-0.20182 z m -97.166193,-67.73916 c -9.381668,-0.97102 -18.689228,-6.28351 -24.481743,-13.97346 -4.894511,-6.4978 -7.362045,-13.94713 -7.362045,-22.22556 0,-5.16003 0.72059,-9.14977 2.437038,-13.49331 4.291917,-10.86088 13.297265,-18.834467 24.782248,-21.942909 2.395784,-0.648424 2.961569,-0.696745 8.260485,-0.705455 5.999891,-0.0099 8.268224,0.267739 11.931132,1.460158 9.803712,3.191486 18.853759,11.745236 22.6975145,21.452786 2.3360932,5.8999 2.9749272,13.40176 1.7428872,20.4668 -1.077582,6.17931 -4.5349377,12.62164 -9.6126307,17.91187 -5.77715,6.01896 -12.184634,9.42954 -20.008882,10.6503 -3.208261,0.50059 -7.726386,0.67406 -10.386004,0.39878 z m 10.3378,-10.83278 c 6.780072,-1.73405 14.031958,-7.38097 16.95872,-13.20547 1.03777,-2.06524 2.331268,-6.03648 2.80112,-8.59985 0.970428,-5.29439 -0.925629,-13.41011 -4.223192,-18.07659 -2.539563,-3.59381 -7.558968,-7.73262 -11.481869,-9.46752 -9.673944,-4.278272 -21.06626,-1.89145 -28.643464,6.00114 -3.595899,3.74557 -5.824149,8.02469 -6.872301,13.19754 -0.602006,2.97102 -0.405286,8.49902 0.408464,11.47818 2.683063,9.82281 11.169923,17.42998 21.297308,19.08974 2.716707,0.44524 7.119355,0.25696 9.755214,-0.41717 z m 91.723185,-4.7897 c -9.159359,-0.2051 -9.598549,-0.27286 -13.096319,-2.02075 -4.644015,-2.32066 -8.100182,-6.13739 -10.378843,-11.4616 -0.722894,-1.68908 -0.734213,-1.79913 -0.734213,-7.13948 0,-5.15314 0.03185,-5.49662 0.637823,-6.87917 3.470899,-7.91893 9.539073,-12.741 17.081802,-13.57405 4.003807,-0.44219 174.152788,-0.43592 176.911838,0.007 7.04226,1.12931 13.20525,6.12485 15.97459,12.94854 0.6518,1.60603 1.27389,5.64606 0.86939,5.64606 -0.0707,0 -1.66388,-0.23195 -3.54052,-0.51545 -7.59174,-1.14687 -12.04957,-1.44586 -21.66826,-1.45332 -9.35244,-0.007 -11.84876,0.14226 -19.97604,1.19641 -20.94651,2.71687 -41.8364,10.29005 -60.22544,21.83343 l -2.69716,1.6931 -35.412136,-0.0468 C 80.09864,133.38111 60.412708,133.27605 55.828802,133.17339 Z M -48.906465,64.910074 c -3.398726,-0.604713 -10.57879,-3.724455 -13.703427,-5.954149 -0.942919,-0.672854 -2.955436,-2.470435 -4.472257,-3.994628 -6.083422,-6.112984 -9.010672,-11.319928 -10.491878,-18.66279 -0.488474,-2.421536 -0.602419,-3.845494 -0.599191,-7.488071 0.0043,-4.809831 0.340754,-7.110799 1.572151,-10.750494 l 0.641001,-1.894637 -2.522413,-2.673267 c -3.397375,-3.6005542 -4.475496,-5.2911062 -4.871472,-7.6387172 -0.979699,-5.80831304 2.328111,-10.6586518 8.072906,-11.8375372 3.574243,-0.73347 6.803695,0.2917295 9.97349,3.1661102 0.969434,0.879083 1.921934,1.597776 2.116667,1.597096 0.194736,-7.94e-4 1.842344,-0.725816 3.661355,-1.61141 6.809957,-3.3154569 9.468061,-4.1427772 14.2875,-4.4469131 6.411923,-0.4046299 12.121735,0.4474554 16.751612,2.4998732 3.891807,1.7252319 3.822142,1.7179869 4.875785,0.5071269 0.501792,-0.5766647 5.213111,-6.1681678 10.469602,-12.4255638 11.0750407,-13.183875 15.4236977,-18.241351 18.1300437,-21.085182 2.508322,-2.635745 3.379674,-2.9919 7.3198333,-2.9919 2.642542,0 3.047386,0.06726 4.398576,0.730824 2.632094,1.2926 4.771615,4.12428 5.522005,7.308437 0.462815,1.963875 0.190172,4.556532 -0.625528,5.948423 -1.288624,2.198867 -9.339598,12.189346 -23.7681033,29.4939078 -4.045291,4.851646 -7.3550746,8.9677372 -7.3550746,9.1468712 0,0.17913 0.490513,1.626946 1.09003,3.217365 2.8596166,7.586101 3.5012686,14.214141 2.0660866,21.342037 -1.340054,6.65544 -4.5751807,12.669427 -9.6252407,17.892977 -5.198099,5.376677 -10.40025,8.425227 -17.078794,10.00847 -2.42085,0.573897 -3.526702,0.670748 -8.598958,0.753089 -3.201458,0.05198 -6.457797,-0.01884 -7.236307,-0.157348 z m 12.855147,-10.557552 c 7.576214,-1.839965 13.877912,-6.966032 17.413656,-14.165003 2.007682,-4.087752 2.616316,-6.720676 2.599383,-11.244791 -0.01122,-2.999169 -0.109059,-3.847624 -0.610177,-5.291667 -0.328245,-0.945885 -0.675066,-1.860087 -0.770713,-2.031561 -0.105024,-0.188285 -1.274268,1.015902 -2.95203,3.040251 -12.482836,15.061503 -15.663551,18.458658 -18.013379,19.239147 -1.654,0.54937 -5.109459,0.627949 -6.795969,0.154541 -1.445783,-0.405834 -4.18734,-2.70536 -11.115916,-9.32366 -8.935929,-8.53576 -10.446361,-9.772814 -11.116746,-9.104701 -0.336527,0.335385 -0.376812,5.786911 -0.0574,7.766946 1.698561,10.529327 11.108939,19.778864 21.841994,21.468681 2.278698,0.358756 7.050054,0.105584 9.577293,-0.508183 z m -3.20429,-39.631148 c 4.394156,-5.2913782 7.242742,-9.0207022 7.242742,-9.4820792 0,-1.111803 -4.721609,-2.070971 -10.186459,-2.06932 -4.625962,0.0013 -5.64575,0.235265 -10.003369,2.294052 l -2.859622,1.351049 6.032463,6.0367412 c 3.317856,3.320209 6.095733,6.036744 6.173063,6.036744 0.07733,0 1.69786,-1.875234 3.601182,-4.167187 z M 57.019427,49.318467 C 45.665167,49.116476 45.856132,49.142815 42.301275,47.288441 38.490386,45.300507 35.48968,42.1721 33.459942,38.070852 c -1.735298,-3.506308 -2.102334,-5.158409 -2.086715,-9.392708 0.01212,-3.285852 0.08026,-3.773148 0.851016,-6.085416 1.524217,-4.572667 4.101931,-8.120245 7.651001,-10.529692 0.843571,-0.572696 2.758594,-1.655799 4.255604,-2.4068982 l 2.72184,-1.365631 90.014622,0.09075 c 67.60591,0.06816 90.34394,0.167934 91.33753,0.40081 1.95239,0.457597 5.8525,2.4812442 7.72512,4.0083232 2.80926,2.290879 5.5757,6.158201 6.70631,9.375034 0.46046,1.310053 0.53012,2.183458 0.53012,6.645976 0,4.505775 -0.068,5.342377 -0.55335,6.801708 -0.80306,2.414844 -2.3455,4.873095 -4.51596,7.197187 -2.21271,2.369347 -4.2827,3.90616 -7.24641,5.379908 l -2.11666,1.052547 -80.69792,0.129646 c -44.38386,0.07131 -85.34135,0.04704 -91.016663,-0.05392 z M -106.23971,20.079186 c 6e-5,-6.111875 0.0348,-8.574407 0.0771,-5.472292 0.0423,3.102112 0.0423,8.102737 -1.2e-4,11.1125 -0.0424,3.009759 -0.0771,0.471667 -0.077,-5.640208 z"
       id="path799" /></g></svg>
