<?xml version="1.0" encoding="UTF-8" standalone="no"?>
<!-- Created with Inkscape (http://www.inkscape.org/) -->

<svg
   width="499.92819mm"
   height="646.11566mm"
   viewBox="0 0 499.9282 646.11566"
   version="1.1"
   id="svg825"
   xml:space="preserve"
   inkscape:version="1.2.1 (9c6d41e410, 2022-07-14, custom)"
   sodipodi:docname="5.svg"
   xmlns:inkscape="http://www.inkscape.org/namespaces/inkscape"
   xmlns:sodipodi="http://sodipodi.sourceforge.net/DTD/sodipodi-0.dtd"
   xmlns="http://www.w3.org/2000/svg"
   xmlns:svg="http://www.w3.org/2000/svg">

	<style
   type="text/css"
   id="style14933">
		<![CDATA[
			path {
				fill:#fafafa;
			}
		]]> 
	  </style>

	<sodipodi:namedview
   id="namedview827"
   pagecolor="#000000"
   bordercolor="#000000"
   borderopacity="0.25"
   inkscape:showpageshadow="2"
   inkscape:pageopacity="0.0"
   inkscape:pagecheckerboard="0"
   inkscape:deskcolor="#d1d1d1"
   inkscape:document-units="mm"
   showgrid="false"
   inkscape:zoom="0.2102413"
   inkscape:cx="998.85227"
   inkscape:cy="1274.7258"
   inkscape:window-width="1440"
   inkscape:window-height="831"
   inkscape:window-x="0"
   inkscape:window-y="0"
   inkscape:window-maximized="1"
   inkscape:current-layer="layer1" /><defs
   id="defs822" /><g
   inkscape:label="Capa 1"
   inkscape:groupmode="layer"
   id="layer1"
   transform="translate(159.55235,139.28584)"><path
     style="stroke-width:0.255976"
     d="m 146.86667,345.52145 -6.8721,-0.15482 -1.24986,-0.76073 c -0.68745,-0.4184 -1.78926,-1.41981 -2.4485,-2.22538 l -1.1986,-1.46467 -0.18606,-36.1161 c -0.19218,-37.29955 -0.0673,-45.08239 0.76757,-47.8473 0.29318,-0.97095 0.68538,-1.56212 1.48908,-2.24447 1.99239,-1.69158 2.88431,-2.02103 5.47692,-2.02306 2.08845,-0.003 2.45952,0.0732 3.69021,0.74438 1.7309,0.94399 3.0386,2.36042 3.40041,3.68325 0.63537,2.32283 0.76342,9.02536 0.77059,40.33411 l 0.008,32.82665 h 87.07212 87.07213 v -85.70365 -85.70363 l -35.66732,-0.10541 c -35.65375,-0.10537 -37.37794,-0.14807 -39.48155,-0.97775 -1.88925,-0.74513 -3.79653,-4.10647 -3.79653,-6.6909 0,-3.01054 2.04146,-6.14639 4.46581,-6.85985 2.81902,-0.82956 10.06286,-0.94611 48.16446,-0.77498 36.38242,0.16341 37.03403,0.175 37.7321,0.67056 0.39068,0.27734 1.1453,0.79428 1.67695,1.14872 0.53164,0.35444 1.10642,0.90526 1.27731,1.22402 1.35704,2.5315 1.44391,9.73192 1.29079,107.01495 l -0.1372,87.18475 -1.20867,1.74143 c -0.66477,0.95779 -1.48851,1.86697 -1.83058,2.02039 -1.20915,0.54236 -4.09022,0.81447 -11.15006,1.05306 -7.73603,0.26144 -167.55357,0.26718 -179.12696,0.007 z m -175.269893,-3.57688 c -43.561278,-0.12899 -58.860639,-0.2507 -60.498998,-0.48126 -9.414542,-1.3249 -20.826469,-5.07552 -28.717819,-9.43833 -10.25358,-5.6688 -19.79978,-14.11201 -26.67597,-23.59378 -6.34582,-8.75042 -11.14421,-19.43468 -13.34543,-29.71539 -1.52934,-7.14277 -1.45311,-5.063 -1.6944,-46.22397 -0.28908,-49.31125 -0.28856,-209.937923 8.4e-4,-260.581193 0.21617,-37.830044 0.24767,-39.628584 0.74782,-42.699483 2.86201,-17.5727 10.67632,-32.810354 23.10879,-45.061414 10.10071,-9.95334 23.02774,-17.30098 36.572977,-20.78784 7.794778,-2.00657 9.520651,-2.14236 31.029494,-2.4415 34.099555,-0.47424 316.929369,-0.0535 324.957219,0.48348 10.93718,0.73148 27.07153,7.1314 37.9169,15.04026 5.18127,3.77841 11.83133,10.10363 15.45653,14.70155 4.96928,6.30266 9.98156,15.185368 12.53993,22.223066 1.56568,4.306969 3.33459,10.856541 3.70673,13.724426 0.76447,5.891721 0.85324,14.221041 0.97236,91.23344 l 0.12147,78.544173 -20.33743,-0.06504 -20.33743,-0.06504 -0.12901,-82.288804 -0.12899,-82.288802 -1.22543,-3.174722 c -2.74173,-7.103052 -5.25266,-11.209077 -9.59269,-15.686541 -5.53095,-5.70611 -11.53152,-9.276002 -18.7219,-11.138152 -2.04458,-0.529497 -3.41333,-0.674182 -8.25573,-0.872681 -9.04975,-0.370971 -229.289801,-0.57698 -284.951586,-0.266544 -30.608829,0.170712 -48.931363,0.365909 -50.123663,0.533985 -3.988155,0.562196 -9.993075,2.913133 -14.116221,5.526521 -5.7054,3.616278 -11.29843,9.692758 -14.37675,15.619445 -1.41302,2.720502 -3.17076,7.775676 -3.57118,10.27059 -0.53141,3.311059 -0.71937,47.264924 -0.72093,168.59127 -0.002,128.19378 0.17995,165.44507 0.82274,168.76825 2.79639,14.45709 15.65419,27.43771 30.350305,30.64025 2.894721,0.63081 24.185916,0.82619 91.5308864,0.83998 l 63.5304066,0.0131 v 20.19121 20.19124 l -18.768884,-0.0465 C 38.348849,342.13815 3.6651197,342.03954 -28.403223,341.9446 Z M 266.69367,267.39222 c -2.45254,-0.88595 -3.7023,-2.50253 -12.35322,-15.97903 -7.03672,-10.96184 -9.49154,-14.17677 -15.18355,-19.88514 -7.80605,-7.82845 -14.52312,-12.60111 -24.16815,-17.17209 -13.83967,-6.55891 -24.75163,-8.78575 -43.05163,-8.78575 h -5.42779 l -0.0196,5.39703 c -0.0403,11.05971 -0.39571,19.52179 -0.87478,20.82471 -0.61443,1.67107 -2.44024,3.60025 -3.95013,4.17379 -1.74652,0.66343 -5.26431,0.63783 -6.55747,-0.0476 -1.11932,-0.5934 -5.32324,-4.15008 -29.09509,-24.61551 -20.74496,-17.85953 -30.711511,-26.59606 -34.901715,-30.59425 -2.620738,-2.50065 -3.084616,-3.06698 -3.418388,-4.17347 -0.485203,-1.60838 -0.486529,-2.5409 -0.0058,-4.13421 0.321846,-1.0669 0.807468,-1.67136 3.160399,-3.93374 4.463892,-4.29212 15.155034,-13.64779 40.188864,-35.16883 26.16816,-22.49617 23.9387,-20.81602 27.60509,-20.80375 1.62767,0.006 2.29424,0.12658 3.15354,0.57316 1.54926,0.80515 2.87059,2.19862 3.64361,3.84258 0.61843,1.31522 0.68027,1.78058 0.84673,6.3714 0.0988,2.72391 0.18975,8.29037 0.20221,12.36993 l 0.0227,7.41734 0.83846,0.12662 c 0.46116,0.0697 2.81211,0.19593 5.22433,0.28064 13.68821,0.48057 24.05732,2.48759 35.34618,6.84162 28.91929,11.15389 51.15989,34.21743 60.74559,62.99331 2.5982,7.79961 3.54181,12.64999 6.82643,35.08912 l 1.86391,12.73341 -0.76182,1.48935 c -1.19509,2.33646 -2.1,3.29321 -3.97346,4.20117 -2.01239,0.97529 -4.21416,1.18646 -5.92529,0.56833 z m -11.66199,-45.11131 c -2.98032,-10.99382 -8.46867,-21.52363 -16.1893,-31.06045 -2.90406,-3.58718 -9.73812,-10.31493 -13.38199,-13.17381 -12.9326,-10.14647 -27.61693,-16.36397 -43.21357,-18.297 -4.38163,-0.54307 -11.20228,-0.90162 -17.41443,-0.91551 -8.56015,-0.019 -10.3961,-0.47103 -12.43988,-3.06209 -1.43787,-1.82288 -1.56426,-2.57285 -1.78229,-10.57617 -0.0981,-3.60185 -0.2485,-6.80927 -0.33418,-7.12759 -0.13939,-0.5179 -1.74574,0.7918 -15.26354,12.44489 -21.99602,18.96174 -27.32522,23.65336 -27.32522,24.05592 0,0.23816 9.27079,8.33839 27.57991,24.09764 13.40292,11.53633 14.86301,12.7225 15.00612,12.19093 0.0872,-0.32387 0.2388,-3.53586 0.33691,-7.1377 0.21803,-8.00331 0.34442,-8.75328 1.78229,-10.57616 2.18319,-2.7678 3.75765,-3.05632 16.69674,-3.05955 9.43841,-0.003 16.76527,0.30759 21.1553,0.89498 14.45168,1.93361 28.50279,6.78248 40.355,13.926 7.14884,4.30876 12.45785,8.48413 19.62802,15.43693 2.97981,2.88943 5.45474,5.15323 5.49987,5.03066 0.0451,-0.12261 -0.26798,-1.51395 -0.69576,-3.09192 z m -299.559371,-5.77965 c -3.581561,-0.45566 -7.360739,-1.69723 -11.376983,-3.73775 -7.92097,-4.02433 -14.263859,-11.18989 -17.228755,-19.46336 -1.43789,-4.01243 -1.927654,-6.9229 -1.931255,-11.47685 -0.005,-6.24932 1.184617,-11.31831 3.835763,-16.34509 1.63807,-3.1059 3.231821,-5.07667 7.05189,-8.72022 4.694245,-4.47729 8.180884,-6.65148 13.457545,-8.39177 3.371113,-1.11182 5.358323,-1.33801 11.738612,-1.33617 5.362078,0.003 6.124866,0.0561 7.916781,0.56622 9.44243,2.68805 18.461438,9.66926 22.5742893,17.47375 2.6676994,5.06218 4.0484405,10.81015 4.0548751,16.88026 0.0077,7.30354 -1.9096657,13.31394 -6.3162974,19.79944 -4.882571,7.18595 -14.028999,12.96737 -22.704378,14.35133 -2.98863,0.47675 -8.81498,0.68736 -11.072087,0.40021 z m 11.512125,-10.6832 c 8.427813,-2.11444 15.441977,-9.27514 17.799516,-18.17143 0.776555,-2.93032 0.962509,-7.79425 0.397416,-10.39495 -2.076172,-9.55492 -8.721439,-16.79359 -17.986347,-19.59248 -2.128153,-0.64289 -2.654257,-0.69776 -6.820871,-0.71117 -3.962238,-0.0126 -4.763529,0.0563 -6.546552,0.56482 -4.37664,1.24811 -8.714493,3.86632 -11.916505,7.1925 -8.793188,9.13417 -9.337202,22.64076 -1.314225,32.62909 3.524832,4.38831 9.141273,7.76741 14.488456,8.71691 0.851372,0.15119 1.83819,0.32594 2.192928,0.38838 1.53402,0.26992 7.735565,-0.12728 9.706184,-0.62167 z m 79.042886,-4.97393 c -2.920917,-0.77196 -5.465087,-2.21969 -7.964411,-4.53202 -1.871883,-1.73188 -3.373718,-3.85876 -4.857562,-6.87931 l -1.238563,-2.52127 -0.08928,-4.49687 c -0.104038,-5.24031 0.0849,-6.38171 1.534889,-9.27277 1.981113,-3.94998 5.649461,-7.50193 10.041547,-9.7229 L 45.983205,162.14 h 10.728706 10.728695 v 19.55629 19.55628 l -9.997166,-0.0168 c -7.96163,-0.0132 -10.286087,-0.0932 -11.416126,-0.39173 z m -92.362692,-64.98501 c -2.801867,-0.52281 -6.367506,-1.72676 -9.081592,-3.06641 -10.255355,-5.06192 -17.200047,-14.2558 -19.174768,-25.38492 -0.591424,-3.33315 -0.599513,-8.835543 -0.01773,-12.06394 1.589026,-8.817764 6.71789,-16.982421 13.989488,-22.26994 4.121716,-2.997091 10.149558,-5.521153 14.77561,-6.187046 3.112629,-0.448048 11.079693,-0.177252 14.089424,0.478891 13.202765,2.878294 24.5228926,14.467785 26.8561864,27.495236 0.519517,2.900628 0.5815919,9.606799 0.1161366,12.546799 -1.0461423,6.60787 -4.7004113,13.38078 -10.073306,18.67007 -5.152985,5.07283 -10.356172,7.89685 -17.36704,9.42594 -3.152609,0.6876 -11.240464,0.89124 -14.112407,0.35532 z m 12.127341,-10.04715 c 4.536205,-1.06245 9.756356,-4.1864 13.382155,-8.00846 2.20592,-2.32535 3.346462,-4.12251 4.528561,-7.13574 2.075717,-5.29109 2.42369,-10.10744 1.088781,-15.069956 -1.380294,-5.131205 -3.085997,-8.17719 -6.413413,-11.452834 -5.761221,-5.671596 -13.243188,-8.454105 -20.536974,-7.63762 -10.422187,1.166683 -19.14529,8.473938 -22.031438,18.455519 -0.802869,2.776691 -0.859147,9.685901 -0.101367,12.444911 2.193703,7.98708 8.326933,14.7162 15.863803,17.40499 3.300836,1.1776 4.96212,1.46281 8.673075,1.48908 2.537633,0.0181 3.887596,-0.10129 5.546817,-0.48989 z m 83.589241,-4.82474 c -3.681864,-0.24639 -6.164554,-1.15069 -9.449664,-3.44194 -3.289901,-2.29463 -6.436059,-6.56402 -7.60863,-10.32501 -0.475898,-1.52647 -0.52397,-2.22632 -0.444844,-6.47645 l 0.08871,-4.765034 1.079097,-2.211066 c 1.441176,-2.952969 2.779039,-4.835616 4.767584,-6.708981 2.72752,-2.569524 5.950958,-4.295655 9.565865,-5.12245 1.736892,-0.397261 8.120375,-0.428582 87.913042,-0.431299 83.33791,-0.0029 86.09686,0.012 87.8461,0.473555 4.75702,1.255129 8.98235,4.138888 11.81116,8.061055 1.00941,1.399546 2.68636,4.846126 2.92064,6.002679 l 0.16721,0.825426 H 152.73904 67.440618 v 12.190935 12.19093 l -7.675252,-0.0406 c -4.221381,-0.0224 -8.894255,-0.12211 -10.384156,-0.22181 z M -46.195417,55.711248 c -3.897317,-0.60088 -10.960025,-3.656168 -14.282343,-6.178465 -2.210101,-1.677903 -7.477244,-7.145229 -9.028978,-9.37213 -0.755056,-1.083588 -1.879813,-3.025458 -2.499463,-4.315275 -3.549467,-7.388307 -4.224096,-17.100795 -1.720228,-24.765753 l 0.751943,-2.3018792 -1.14668,-1.099564 c -1.519688,-1.4572478 -4.491485,-4.9381914 -5.166909,-6.0521344 -0.296442,-0.4889068 -0.68135,-1.60792038 -0.855355,-2.48669664 -1.319141,-6.66209656 3.801502,-12.17832876 10.821311,-11.65730076 2.454675,0.182193 4.446924,1.132782 6.827669,3.2577755 1.635117,1.459463 1.821364,1.5586214 2.45092,1.3048667 0.37473,-0.1510427 2.561964,-1.1416685 4.860515,-2.2013882 5.037346,-2.322408 7.669101,-3.108693 11.646853,-3.479712 6.189136,-0.577279 12.252447,0.34042 17.524962,2.652448 2.968029,1.3014993 3.012404,1.3072597 3.799221,0.493271 0.377008,-0.390029 4.836701,-5.566467 9.910428,-11.503198 10.3544059,-12.115619 13.3987137,-15.622529 17.129484,-19.732435 3.1951601,-3.519864 3.986139,-3.934772 7.78949,-4.085968 3.424773,-0.136146 5.046518,0.425485 7.109384,2.462079 3.417928,3.374395 4.278619,8.380515 2.002831,11.649257 -2.019484,2.900615 -8.389475,10.663173 -20.5045664,24.9871506 L -8.3745613,4.636086 -7.2216694,7.5924836 c 5.5554845,14.2461174 2.7759232,27.9962384 -7.7550956,38.3634184 -5.161739,5.081438 -10.241583,7.87752 -16.846423,9.272729 -2.868019,0.60584 -11.65845,0.901022 -14.372229,0.482617 z m 8.762492,-9.647271 c 6.040851,-0.671211 10.745568,-2.866625 15.180965,-7.084059 4.94953,-4.706309 7.660964,-10.810252 7.73663,-17.416615 0.03507,-3.062471 -0.251629,-4.842873 -1.096551,-6.809405 l -0.415867,-0.967918 -6.254601,7.364468 c -10.426388,12.276521 -11.771895,13.622636 -14.392565,14.399072 -1.462882,0.433413 -4.595985,0.474676 -6.182412,0.08143 -1.479458,-0.366737 -4.282495,-2.672663 -11.4247,-9.398559 -7.258477,-6.835395 -9.030976,-8.351761 -9.762464,-8.351761 -0.83757,0 -0.952409,0.685033 -0.801306,4.779837 0.141722,3.840616 0.745706,6.225844 2.393234,9.451281 3.730779,7.303912 11.795662,13.042909 19.588506,13.939244 2.597485,0.298762 2.85367,0.299375 5.431131,0.01298 z m 0.586993,-38.953334 c 4.858246,-5.7945119 6.786482,-8.3223326 6.700772,-8.7843738 -0.249607,-1.3455546 -8.636397,-2.4736776 -13.348013,-1.7954662 -2.286532,0.329133 -3.167699,0.6247123 -6.825665,2.2895897 l -2.308265,1.05057907 5.918041,5.83010683 c 3.254923,3.2065555 5.977036,5.8238264 6.049141,5.8161564 0.07211,-0.0077 1.788399,-1.9906365 3.813989,-4.406592 z m 85.06618,33.362898 C 45.612313,40.257106 43.762313,39.654514 41.423449,38.259662 37.825763,36.114067 34.532476,32.305013 33.026531,28.547694 31.082521,23.697411 31.079453,18.436231 33.017831,13.666377 35.145484,8.43082 38.520374,5.1437764 44.588336,2.3970374 l 2.289453,-1.036349 87.872341,0.071824 c 82.36889,0.067322 87.96524,0.099284 89.35563,0.5103817 5.76684,1.7050623 10.8003,6.3115137 13.3137,12.1842529 0.66678,1.55799 0.68247,1.720289 0.6811,7.055198 -0.003,5.358378 -0.0144,5.490337 -0.69416,7.054505 -1.43491,3.30175 -4.38262,6.913174 -7.45033,9.127833 -0.79095,0.571009 -2.50104,1.563746 -3.80021,2.206077 l -2.36212,1.167873 -86.62581,-0.03619 C 89.523746,40.682533 49.497274,40.579534 48.220217,40.473548 Z"
     id="path871" /><text
     xml:space="preserve"
     style="font-size:2.87187px;fill:#fafafa;stroke-width:0.23932"
     x="-160.13019"
     y="429.29507"
     id="text363"
     transform="scale(0.90215579,1.108456)"><tspan
       sodipodi:role="line"
       id="tspan361"
       style="font-style:normal;font-variant:normal;font-weight:bold;font-stretch:normal;font-size:127.639px;font-family:sans-serif;-inkscape-font-specification:'sans-serif, Bold';font-variant-ligatures:normal;font-variant-caps:normal;font-variant-numeric:normal;font-variant-east-asian:normal;stroke-width:0.23932;stroke-opacity:1"
       x="-160.13019"
       y="429.29507">Importar</tspan></text></g></svg>
