<?xml version="1.0" encoding="UTF-8" standalone="no"?>
<!-- Created with Inkscape (http://www.inkscape.org/) -->

<svg
   width="499.92819mm"
   height="646.11566mm"
   viewBox="0 0 499.9282 646.11566"
   version="1.1"
   id="svg825"
   xml:space="preserve"
   inkscape:version="1.2.1 (9c6d41e410, 2022-07-14, custom)"
   sodipodi:docname="5.svg"
   xmlns:inkscape="http://www.inkscape.org/namespaces/inkscape"
   xmlns:sodipodi="http://sodipodi.sourceforge.net/DTD/sodipodi-0.dtd"
   xmlns="http://www.w3.org/2000/svg"
   xmlns:svg="http://www.w3.org/2000/svg">

	<style
   type="text/css"
   id="style14933">
		<![CDATA[
			path {
				fill:#fafafa;
			}
		]]> 
	  </style>

	<sodipodi:namedview
   id="namedview827"
   pagecolor="#000000"
   bordercolor="#000000"
   borderopacity="0.25"
   inkscape:showpageshadow="2"
   inkscape:pageopacity="0.0"
   inkscape:pagecheckerboard="0"
   inkscape:deskcolor="#d1d1d1"
   inkscape:document-units="mm"
   showgrid="false"
   inkscape:zoom="0.2102413"
   inkscape:cx="998.85227"
   inkscape:cy="-1008.3651"
   inkscape:window-width="1440"
   inkscape:window-height="831"
   inkscape:window-x="0"
   inkscape:window-y="0"
   inkscape:window-maximized="1"
   inkscape:current-layer="layer1" /><defs
   id="defs822" /><g
   inkscape:label="Capa 1"
   inkscape:groupmode="layer"
   id="layer1"
   transform="translate(159.55235,139.28584)"><path
     style="stroke-width:0.2603"
     d="m 146.86667,362.03895 -6.8721,-0.1601 -1.24986,-0.78665 c -0.68745,-0.43265 -1.78926,-1.46818 -2.4485,-2.30119 l -1.1986,-1.51457 -0.18606,-37.34658 c -0.19218,-38.57036 -0.0673,-46.61836 0.76757,-49.47748 0.29318,-1.00403 0.68538,-1.61534 1.48908,-2.32094 1.99239,-1.74921 2.88431,-2.08989 5.47692,-2.09198 2.08845,-0.003 2.45952,0.0757 3.69021,0.76974 1.7309,0.97615 3.0386,2.44084 3.40041,3.80874 0.63537,2.40197 0.76342,9.33286 0.77059,41.70831 l 0.008,33.94504 h 87.07212 87.07213 v -88.62357 -88.62358 l -35.66732,-0.109 c -35.65375,-0.10897 -37.37794,-0.15312 -39.48155,-1.01108 -1.88925,-0.7705 -3.79653,-4.24637 -3.79653,-6.91885 0,-3.11311 2.04146,-6.3558 4.46581,-7.09356 2.81902,-0.85783 10.06286,-0.97834 48.16446,-0.80139 36.38242,0.16898 37.03403,0.18096 37.7321,0.69341 0.39068,0.28678 1.1453,0.82134 1.67695,1.18785 0.53164,0.36652 1.10642,0.93612 1.27731,1.26574 1.35704,2.61773 1.44391,10.06347 1.29079,110.66097 l -0.1372,90.15516 -1.20867,1.80075 c -0.66477,0.99042 -1.48851,1.93058 -1.83058,2.08922 -1.20915,0.56083 -4.09022,0.84222 -11.15006,1.08894 -7.73603,0.27035 -167.55357,0.27628 -179.12696,0.007 z M -28.403223,358.3402 c -43.561278,-0.13338 -58.860639,-0.25924 -60.498998,-0.49766 -9.414542,-1.37004 -20.826469,-5.24844 -28.717819,-9.75989 -10.25358,-5.86194 -19.79978,-14.59281 -26.67597,-24.39762 -6.34582,-9.04855 -11.14421,-20.09682 -13.34543,-30.72781 -1.52934,-7.38612 -1.45311,-5.23549 -1.6944,-47.79883 -0.28908,-50.9913 -0.28856,-217.090554 8.4e-4,-269.459253 0.21617,-39.118921 0.24767,-40.978739 0.74782,-44.154264 2.86201,-18.171406 10.67632,-33.928213 23.10879,-46.596663 10.10071,-10.29246 23.02774,-17.89043 36.572977,-21.49609 7.794778,-2.07493 9.520651,-2.21536 31.029494,-2.52468 34.099555,-0.4904 316.929369,-0.0553 324.957219,0.49994 10.93718,0.75641 27.07153,7.37438 37.9169,15.5527 5.18127,3.90714 11.83133,10.44786 15.45653,15.20243 4.96928,6.51739 9.98156,15.702737 12.53993,22.980211 1.56568,4.453708 3.33459,11.226426 3.70673,14.192021 0.76447,6.092453 0.85324,14.705555 0.97236,94.341784 l 0.12147,81.220194 -20.33743,-0.0673 -20.33743,-0.0673 -0.12901,-85.092403 -0.12899,-85.092401 -1.22543,-3.282886 c -2.74173,-7.345054 -5.25266,-11.590972 -9.59269,-16.220985 -5.53095,-5.900518 -11.53152,-9.592038 -18.7219,-11.517631 -2.04458,-0.547537 -3.41333,-0.697152 -8.25573,-0.902414 -9.04975,-0.38361 -229.289801,-0.596637 -284.951586,-0.275625 -30.608829,0.176528 -48.931363,0.378376 -50.123663,0.552178 -3.988155,0.58135 -9.993075,3.012384 -14.116221,5.71481 -5.7054,3.739486 -11.29843,10.022993 -14.37675,16.151604 -1.41302,2.81319 -3.17076,8.040595 -3.57118,10.620511 -0.53141,3.423867 -0.71937,48.875251 -0.72093,174.335222 -0.002,132.56137 0.17995,171.08182 0.82274,174.51822 2.79639,14.94965 15.65419,28.37253 30.350305,31.68417 2.894721,0.65231 24.185916,0.85434 91.5308864,0.86861 l 63.5304066,0.0135 v 20.87913 20.87916 l -18.768884,-0.0481 C 38.348849,358.5403 3.6651197,358.43828 -28.403223,358.3401 Z M 266.69367,281.24785 c -2.45254,-0.91614 -3.7023,-2.5878 -12.35322,-16.52345 -7.03672,-11.33532 -9.49154,-14.65978 -15.18355,-20.56264 -7.80605,-8.09516 -14.52312,-13.03042 -24.16815,-17.75714 -13.83967,-6.78237 -24.75163,-9.08509 -43.05163,-9.08509 h -5.42779 l -0.0196,5.58091 c -0.0403,11.43652 -0.39571,20.18691 -0.87478,21.53422 -0.61443,1.72801 -2.44024,3.72291 -3.95013,4.31599 -1.74652,0.68603 -5.26431,0.65957 -6.55747,-0.0493 -1.11932,-0.61361 -5.32324,-4.29147 -29.09509,-25.45416 -20.74496,-18.46801 -30.711511,-27.5022 -34.901715,-31.63661 -2.620738,-2.58584 -3.084616,-3.17147 -3.418388,-4.31564 -0.485203,-1.6632 -0.486529,-2.62748 -0.0058,-4.27508 0.321846,-1.10325 0.807468,-1.72829 3.160399,-4.06775 4.463892,-4.43836 15.155034,-14.11278 40.188864,-36.36705 26.16816,-23.26262 23.9387,-21.52522 27.60509,-21.51255 1.62767,0.006 2.29424,0.1309 3.15354,0.59269 1.54926,0.83259 2.87059,2.27354 3.64361,3.97351 0.61843,1.36002 0.68027,1.84125 0.84673,6.58848 0.0988,2.81671 0.18975,8.57282 0.20221,12.79136 l 0.0227,7.67006 0.83846,0.13094 c 0.46116,0.0721 2.81211,0.2026 5.22433,0.29019 13.68821,0.49694 24.05732,2.57235 35.34618,7.07472 28.91929,11.5339 51.15989,35.38323 60.74559,65.1395 2.5982,8.06536 3.54181,13.08098 6.82643,36.28463 l 1.86391,13.16723 -0.76182,1.5401 c -1.19509,2.41607 -2.1,3.40541 -3.97346,4.3443 -2.01239,1.00851 -4.21416,1.22688 -5.92529,0.58769 z m -11.66199,-46.64828 c -2.98032,-11.36838 -8.46867,-22.25694 -16.1893,-32.11868 -2.90406,-3.7094 -9.73812,-10.66636 -13.38199,-13.62264 -12.9326,-10.49217 -27.61693,-16.92149 -43.21357,-18.92039 -4.38163,-0.56157 -11.20228,-0.93234 -17.41443,-0.9467 -8.56015,-0.0197 -10.3961,-0.48708 -12.43988,-3.16641 -1.43787,-1.88499 -1.56426,-2.66052 -1.78229,-10.93651 -0.0981,-3.72456 -0.2485,-7.04127 -0.33418,-7.37044 -0.13939,-0.53554 -1.74574,0.81879 -15.26354,12.8689 -21.99602,19.60778 -27.32522,24.45923 -27.32522,24.87551 0,0.24627 9.27079,8.62248 27.57991,24.91865 13.40292,11.92938 14.86301,13.15597 15.00612,12.60628 0.0872,-0.3349 0.2388,-3.65632 0.33691,-7.38087 0.21803,-8.276 0.34442,-9.05152 1.78229,-10.9365 2.18319,-2.8621 3.75765,-3.16045 16.69674,-3.16379 9.43841,-0.003 16.76527,0.31807 21.1553,0.92547 14.45168,1.9995 28.50279,7.01356 40.355,14.40047 7.14884,4.45555 12.45785,8.77318 19.62802,15.96286 2.97981,2.98788 5.45474,5.3288 5.49987,5.20206 0.0451,-0.12678 -0.26798,-1.56554 -0.69576,-3.19727 z m -299.559371,-5.97656 c -3.581561,-0.47118 -7.360739,-1.75506 -11.376983,-3.86509 -7.92097,-4.16144 -14.263859,-11.57114 -17.228755,-20.12649 -1.43789,-4.14912 -1.927654,-7.15877 -1.931255,-11.86787 -0.005,-6.46223 1.184617,-11.70392 3.835763,-16.90196 1.63807,-3.21172 3.231821,-5.24964 7.05189,-9.01733 4.694245,-4.62983 8.180884,-6.8781 13.457545,-8.67767 3.371113,-1.14971 5.358323,-1.38361 11.738612,-1.3817 5.362078,0.003 6.124866,0.058 7.916781,0.58551 9.44243,2.77964 18.461438,9.9987 22.5742893,18.06909 2.6676994,5.23465 4.0484405,11.17845 4.0548751,17.45537 0.0077,7.55237 -1.9096657,13.76755 -6.3162974,20.47401 -4.882571,7.43078 -14.028999,13.40917 -22.704378,14.84028 -2.98863,0.493 -8.81498,0.71078 -11.072087,0.41385 z m 11.512125,-11.04718 c 8.427813,-2.18648 15.441977,-9.59114 17.799516,-18.79053 0.776555,-3.03017 0.962509,-8.05981 0.397416,-10.74911 -2.076172,-9.88046 -8.721439,-17.36576 -17.986347,-20.26 -2.128153,-0.6648 -2.654257,-0.72153 -6.820871,-0.73541 -3.962238,-0.0131 -4.763529,0.0583 -6.546552,0.58407 -4.37664,1.29063 -8.714493,3.99804 -11.916505,7.43756 -8.793188,9.44536 -9.337202,23.41213 -1.314225,33.74077 3.524832,4.53781 9.141273,8.03204 14.488456,9.01389 0.851372,0.15634 1.83819,0.33705 2.192928,0.40161 1.53402,0.27912 7.735565,-0.13161 9.706184,-0.64285 z m 79.042886,-5.14339 c -2.920917,-0.79826 -5.465087,-2.29532 -7.964411,-4.68643 -1.871883,-1.79087 -3.373718,-3.99022 -4.857562,-7.11369 l -1.238563,-2.60717 -0.08928,-4.65007 c -0.104038,-5.41886 0.0849,-6.59915 1.534889,-9.58871 1.981113,-4.08455 5.649461,-7.75752 10.041547,-10.05415 l 2.529265,-1.32257 h 10.728706 10.728695 v 20.22258 20.22257 l -9.997166,-0.0174 c -7.96163,-0.0137 -10.286087,-0.0963 -11.416126,-0.40508 z m -92.362692,-67.19906 c -2.801867,-0.54063 -6.367506,-1.7856 -9.081592,-3.17089 -10.255355,-5.23438 -17.200047,-14.74149 -19.174768,-26.24979 -0.591424,-3.44671 -0.599513,-9.13657 -0.01773,-12.47496 1.589026,-9.118188 6.71789,-17.561017 13.989488,-23.028683 4.121716,-3.099202 10.149558,-5.709259 14.77561,-6.39784 3.112629,-0.463313 11.079693,-0.183291 14.089424,0.495207 13.202765,2.976358 24.5228926,14.960706 26.8561864,28.432006 0.519517,2.99945 0.5815919,9.9341 0.1161366,12.97427 -1.0461423,6.833 -4.7004113,13.83666 -10.073306,19.30616 -5.152985,5.24566 -10.356172,8.1659 -17.36704,9.74709 -3.152609,0.71103 -11.240464,0.9216 -14.112407,0.36743 z m 12.127341,-10.38946 c 4.536205,-1.09865 9.756356,-4.32904 13.382155,-8.28132 2.20592,-2.40457 3.346462,-4.26296 4.528561,-7.37885 2.075717,-5.47136 2.42369,-10.4518 1.088781,-15.58339 -1.380294,-5.306032 -3.085997,-8.455792 -6.413413,-11.843039 -5.761221,-5.864829 -13.243188,-8.742138 -20.536974,-7.897835 -10.422187,1.206431 -19.14529,8.762647 -22.031438,19.084304 -0.802869,2.87129 -0.859147,10.0159 -0.101367,12.86891 2.193703,8.25921 8.326933,15.21758 15.863803,17.99799 3.300836,1.21772 4.96212,1.51265 8.673075,1.5398 2.537633,0.0187 3.887596,-0.10474 5.546817,-0.50657 z m 83.589241,-4.98913 c -3.681864,-0.25478 -6.164554,-1.18988 -9.449664,-3.5592 -3.289901,-2.37281 -6.436059,-6.78765 -7.60863,-10.67679 -0.475898,-1.57847 -0.52397,-2.30217 -0.444844,-6.6971 l 0.08871,-4.92738 1.079097,-2.2864 c 1.441176,-3.053574 2.779039,-5.000366 4.767584,-6.937557 2.72752,-2.657068 5.950958,-4.442009 9.565865,-5.296973 1.736892,-0.410796 8.120375,-0.443184 87.913042,-0.445994 83.33791,-0.003 86.09686,0.01241 87.8461,0.48969 4.75702,1.297891 8.98235,4.2799 11.81116,8.335699 1.00941,1.44723 2.68636,5.011235 2.92064,6.207185 l 0.16721,0.85355 H 152.73904 67.440618 v 12.60628 12.60628 l -7.675252,-0.0419 c -4.221381,-0.0231 -8.894255,-0.12627 -10.384156,-0.22937 z M -46.195417,62.354845 c -3.897317,-0.621351 -10.960025,-3.780735 -14.282343,-6.388967 -2.210101,-1.735069 -7.477244,-7.388668 -9.028978,-9.691441 -0.755056,-1.120505 -1.879813,-3.128536 -2.499463,-4.462296 -3.549467,-7.640029 -4.224096,-17.683424 -1.720228,-25.609529 l 0.751943,-2.380305 -1.14668,-1.137026 c -1.519688,-1.506896 -4.491485,-5.1064367 -5.166909,-6.258332 -0.296442,-0.5055639 -0.68135,-1.6627026 -0.855355,-2.571419 -1.319141,-6.8890757 3.801502,-12.5932472 10.821311,-12.0544678 2.454675,0.1884008 4.446924,1.1713756 6.827669,3.3687687 1.635117,1.5091873 1.821364,1.611724 2.45092,1.3493238 0.37473,-0.1561888 2.561964,-1.1805654 4.860515,-2.2763897 5.037346,-2.4015335 7.669101,-3.2146071 11.646853,-3.5982663 6.189136,-0.5969467 12.252447,0.3520174 17.524962,2.742817 2.968029,1.3458416 3.012404,1.3517983 3.799221,0.5100768 0.377008,-0.4033176 4.836701,-5.7561175 9.910428,-11.8951145 10.3544059,-12.528401 13.3987137,-16.154792 17.129484,-20.404724 3.1951601,-3.639786 3.986139,-4.06883 7.78949,-4.225177 3.424773,-0.140786 5.046518,0.439981 7.109384,2.545962 3.417928,3.489361 4.278619,8.666041 2.002831,12.04615 -2.019484,2.99944 -8.389475,11.02647 -20.5045664,25.8384685 l -9.5996329,11.7365826 1.1528919,3.0571229 c 5.5554845,14.731485 2.7759232,28.950077 -7.7550956,39.67047 -5.161739,5.254563 -10.241583,8.145908 -16.846423,9.588652 -2.868019,0.626482 -11.65845,0.93172 -14.372229,0.49906 z m 8.762492,-9.975955 c 6.040851,-0.69408 10.745568,-2.964292 15.180965,-7.325416 4.94953,-4.866653 7.660964,-11.17856 7.73663,-18.010002 0.03507,-3.166811 -0.251629,-5.007871 -1.096551,-7.041404 l -0.415867,-1.000894 -6.254601,7.615377 c -10.426388,12.694785 -11.771895,14.086762 -14.392565,14.889651 -1.462882,0.44818 -4.595985,0.490849 -6.182412,0.0842 -1.479458,-0.379231 -4.282495,-2.76372 -11.4247,-9.71877 -7.258477,-7.068278 -9.030976,-8.636307 -9.762464,-8.636307 -0.83757,0 -0.952409,0.708373 -0.801306,4.942688 0.141722,3.971467 0.745706,6.437959 2.393234,9.773287 3.730779,7.552759 11.795662,13.487285 19.588506,14.414158 2.597485,0.308941 2.85367,0.309575 5.431131,0.01342 z m 0.586993,-40.280484 c 4.858246,-5.9919322 6.786482,-8.6058764 6.700772,-9.0836594 -0.249607,-1.391398 -8.636397,-2.55795646 -13.348013,-1.8566382 -2.286532,0.3403467 -3.167699,0.6459964 -6.825665,2.3675966 l -2.308265,1.0863725 5.918041,6.0287395 c 3.254923,3.315804 5.977036,6.022246 6.049141,6.014315 0.07211,-0.0079 1.788399,-2.058458 3.813989,-4.556726 z m 85.06618,34.499581 c -2.607935,-0.22381 -4.457935,-0.846932 -6.796799,-2.289308 -3.597686,-2.218696 -6.890973,-6.157524 -8.396918,-10.042857 -1.94401,-5.015533 -1.947078,-10.455963 -0.0087,-15.388326 2.127653,-5.413934 5.502543,-8.812968 11.570505,-11.6532892 L 46.877789,6.1525491 134.75013,6.22682 c 82.36889,0.069616 87.96524,0.1026662 89.35563,0.5277705 5.76684,1.7631539 10.8003,6.5265485 13.3137,12.5993745 0.66678,1.61107 0.68247,1.778898 0.6811,7.295569 -0.003,5.54094 -0.0144,5.677395 -0.69416,7.294855 -1.43491,3.414241 -4.38262,7.148705 -7.45033,9.438819 -0.79095,0.590465 -2.50104,1.617024 -3.80021,2.281239 l -2.36212,1.207662 -86.62581,-0.03742 C 89.523746,46.814098 49.497274,46.70759 48.220217,46.597994 Z"
     id="path871" /><text
     xml:space="preserve"
     style="font-size:2.45109px;fill:#fafafa;stroke-width:0.204257"
     x="-123.01199"
     y="468.98502"
     id="text363"
     transform="scale(0.97218727,1.0286084)"><tspan
       sodipodi:role="line"
       id="tspan361"
       style="font-style:normal;font-variant:normal;font-weight:bold;font-stretch:normal;font-size:108.938px;font-family:sans-serif;-inkscape-font-specification:'sans-serif, Bold';font-variant-ligatures:normal;font-variant-caps:normal;font-variant-numeric:normal;font-variant-east-asian:normal;stroke-width:0.204257;stroke-opacity:1"
       x="-123.01199"
       y="468.98502">Importar</tspan></text></g></svg>
