<?xml version="1.0" encoding="UTF-8" standalone="no"?>
<!-- Created with Inkscape (http://www.inkscape.org/) -->

<svg
   width="512.70148mm"
   height="505.2525mm"
   viewBox="0 0 512.70148 505.2525"
   version="1.1"
   id="svg825"
   xml:space="preserve"
   inkscape:version="1.2.1 (9c6d41e410, 2022-07-14, custom)"
   sodipodi:docname="5.svg"
   xmlns:inkscape="http://www.inkscape.org/namespaces/inkscape"
   xmlns:sodipodi="http://sodipodi.sourceforge.net/DTD/sodipodi-0.dtd"
   xmlns="http://www.w3.org/2000/svg"
   xmlns:svg="http://www.w3.org/2000/svg"><sodipodi:namedview
     id="namedview827"
     pagecolor="#ffffff"
     bordercolor="#000000"
     borderopacity="0.25"
     inkscape:showpageshadow="2"
     inkscape:pageopacity="0.0"
     inkscape:pagecheckerboard="0"
     inkscape:deskcolor="#d1d1d1"
     inkscape:document-units="mm"
     showgrid="false"
     inkscape:zoom="0.2102413"
     inkscape:cx="1001.2305"
     inkscape:cy="1089.2246"
     inkscape:window-width="1440"
     inkscape:window-height="831"
     inkscape:window-x="0"
     inkscape:window-y="0"
     inkscape:window-maximized="1"
     inkscape:current-layer="layer1" /><defs
     id="defs822" /><g
     inkscape:label="Capa 1"
     inkscape:groupmode="layer"
     id="layer1"
     transform="translate(159.55235,139.28584)"><path
       style="fill:#000000;stroke-width:0.264583"
       d="m 154.69588,365.76593 -7.04768,-0.16129 -1.2818,-0.79248 c -0.70501,-0.43587 -1.83497,-1.4791 -2.51106,-2.3183 l -1.22922,-1.52583 -0.19082,-37.62423 c -0.19709,-38.8571 -0.069,-46.96494 0.78719,-49.8453 0.30067,-1.01151 0.70289,-1.62735 1.52712,-2.33821 2.0433,-1.7622 2.95801,-2.10542 5.61686,-2.10753 2.14181,-0.003 2.52236,0.0763 3.7845,0.77546 1.77512,0.98341 3.11624,2.45899 3.48729,3.83707 0.65161,2.41983 0.78293,9.40223 0.79028,42.01837 l 0.008,34.1974 h 89.29687 89.29688 V 260.59863 171.3162 l -36.57864,-0.1098 c -36.56473,-0.10978 -38.33297,-0.15426 -40.49033,-1.0186 -1.93752,-0.77623 -3.89353,-4.27794 -3.89353,-6.97029 0,-3.13626 2.09362,-6.40305 4.57991,-7.14629 2.89105,-0.86421 10.31997,-0.98562 49.39509,-0.80735 37.31202,0.17024 37.98028,0.1823 38.69619,0.69856 0.40066,0.28892 1.17456,0.82745 1.71979,1.19668 0.54523,0.36925 1.13469,0.94308 1.30995,1.27516 1.39171,2.63718 1.4808,10.13828 1.32377,111.48365 l -0.14071,90.8254 -1.23955,1.81414 c -0.68175,0.99777 -1.52654,1.94493 -1.87735,2.10474 -1.24005,0.56501 -4.19473,0.84849 -11.43495,1.09704 -7.93369,0.27236 -171.83468,0.27834 -183.70378,0.007 z M -25.052273,362.0397 c -44.674299,-0.13438 -60.364569,-0.26117 -62.044789,-0.50136 -9.65509,-1.38023 -21.358598,-5.28746 -29.451578,-9.83245 -10.51557,-5.90552 -20.30568,-14.70131 -27.35756,-24.579 -6.50796,-9.11582 -11.42895,-20.24623 -13.68641,-30.95625 -1.56842,-7.44103 -1.49024,-5.27441 -1.7377,-48.15417 -0.29646,-51.37039 -0.29593,-218.70448 8.6e-4,-271.462502 0.2217,-39.409742 0.254,-41.283386 0.76693,-44.482519 2.93514,-18.306497 10.94911,-34.180439 23.69924,-46.943079 10.35879,-10.36897 23.61611,-18.02343 37.507438,-21.6559 7.99394,-2.09035 9.76391,-2.23182 31.822318,-2.54344 34.970822,-0.49405 325.027134,-0.0557 333.260094,0.50365 11.21664,0.76204 27.76323,7.42921 38.88571,15.66833 5.31365,3.93618 12.13363,10.52553 15.85145,15.31545 5.09625,6.56584 10.2366,15.81947 12.86034,23.151048 1.60568,4.486817 3.41979,11.309885 3.80143,14.297528 0.78401,6.137746 0.87505,14.814881 0.99721,95.043147 l 0.12457,81.823997 -20.85706,-0.0678 -20.85707,-0.0678 -0.1323,-85.725002 -0.13229,-85.725003 -1.25674,-3.307292 c -2.81178,-7.39966 -5.38687,-11.677142 -9.83779,-16.341577 -5.67227,-5.944384 -11.82616,-9.663348 -19.20026,-11.603255 -2.09682,-0.551609 -3.50054,-0.702336 -8.46667,-0.909124 -9.28097,-0.386461 -235.148309,-0.601073 -292.23229,-0.277673 -31.390906,0.17784 -50.181593,0.381188 -51.404357,0.556282 -4.090055,0.585673 -10.248405,3.034779 -14.476895,5.757296 -5.851178,3.767286 -11.587118,10.097506 -14.744088,16.27168 -1.44913,2.834103 -3.25178,8.10037 -3.66243,10.699465 -0.54499,3.449322 -0.73775,49.238605 -0.73935,175.631283 -0.002,133.54686 0.18455,172.35369 0.84376,175.81563 2.86784,15.0608 16.05417,28.58347 31.125778,31.91973 2.968683,0.65715 24.803883,0.86069 93.8695634,0.87506 l 65.1536516,0.0136 v 21.03437 21.03438 l -19.248442,-0.0485 C 43.40536,362.24123 7.8354374,362.13852 -25.052273,362.03962 Z M 277.58455,284.37422 c -2.51521,-0.92294 -3.7969,-2.60704 -12.66886,-16.64629 -7.21651,-11.4196 -9.73405,-14.76877 -15.5715,-20.7155 -8.0055,-8.15535 -14.89419,-13.1273 -24.78566,-17.88916 -14.19328,-6.83279 -25.38405,-9.15263 -44.15163,-9.15263 h -5.56647 l -0.0201,5.6224 c -0.0413,11.52154 -0.40582,20.33698 -0.89713,21.6943 -0.63013,1.74087 -2.50259,3.7506 -4.05106,4.34808 -1.79115,0.69114 -5.39882,0.66447 -6.72502,-0.0497 -1.14792,-0.61817 -5.45925,-4.32337 -29.83849,-25.64339 -21.27501,-18.60531 -31.49621,-27.70666 -35.793477,-31.87181 -2.6877,-2.60506 -3.16343,-3.19506 -3.50573,-4.34772 -0.4976,-1.67558 -0.49896,-2.64702 -0.006,-4.30686 0.33007,-1.11146 0.8281,-1.74114 3.24115,-4.098 4.577947,-4.47135 15.542257,-14.2177 41.215717,-36.63741 26.83677,-23.43556 24.55035,-21.68524 28.31042,-21.67248 1.66926,0.006 2.35286,0.13187 3.23411,0.5971 1.58885,0.83878 2.94394,2.29044 3.73671,4.00304 0.63423,1.37014 0.69765,1.85494 0.86836,6.63747 0.10129,2.83765 0.1946,8.63655 0.20738,12.88645 l 0.0233,7.72708 0.85989,0.13192 c 0.47294,0.0726 2.88396,0.2041 5.35781,0.29234 14.03795,0.50064 24.672,2.59148 36.2493,7.12732 29.6582,11.61965 52.46706,35.64628 62.29768,65.62376 2.66459,8.12532 3.63231,13.17823 7.00085,36.55438 l 1.91153,13.26512 -0.78128,1.55155 c -1.22563,2.43403 -2.15366,3.43074 -4.07498,4.3766 -2.06381,1.016 -4.32184,1.236 -6.07669,0.59206 z m -11.95996,-46.99508 c -3.05647,-11.45289 -8.68506,-22.42241 -16.60295,-32.35746 -2.97826,-3.73697 -9.98694,-10.74565 -13.72391,-13.72391 -13.26304,-10.57018 -28.32256,-17.04729 -44.31771,-19.06106 -4.49358,-0.56573 -11.4885,-0.93927 -17.85938,-0.95374 -8.77887,-0.0198 -10.66173,-0.4907 -12.75773,-3.18995 -1.4746,-1.899 -1.60422,-2.68029 -1.82782,-11.01781 -0.10062,-3.75224 -0.25485,-7.09361 -0.34272,-7.42524 -0.14295,-0.53951 -1.79035,0.82489 -15.65354,12.96458 -22.55803,19.75356 -28.02339,24.64107 -28.02339,25.06044 0,0.2481 9.50766,8.68659 28.28459,25.1039 13.74537,12.01807 15.24277,13.25378 15.38954,12.7 0.0894,-0.33739 0.2449,-3.6835 0.34552,-7.43574 0.2236,-8.33752 0.35322,-9.11881 1.82782,-11.01781 2.23898,-2.88337 3.85366,-3.18394 17.12336,-3.1873 9.67957,-0.003 17.19363,0.32044 21.69583,0.93234 14.82093,2.01438 29.23106,7.0657 41.3861,14.50753 7.3315,4.48868 12.77615,8.8384 20.12953,16.08153 3.05594,3.01011 5.59411,5.36842 5.64039,5.24074 0.0462,-0.12772 -0.27483,-1.57718 -0.71353,-3.22104 z m -307.213322,-6.02099 c -3.673073,-0.47469 -7.548811,-1.76811 -11.667673,-3.89382 -8.123356,-4.19238 -14.62831,-11.65717 -17.668962,-20.27613 -1.474629,-4.17995 -1.976906,-7.21199 -1.9806,-11.9561 -0.0051,-6.51026 1.214885,-11.79092 3.93377,-17.02761 1.679924,-3.23559 3.314396,-5.28867 7.23207,-9.08436 4.814187,-4.66426 8.389912,-6.92923 13.801395,-8.74218 3.457247,-1.15826 5.495232,-1.3939 12.038542,-1.39197 5.499082,0.003 6.28136,0.0584 8.11906,0.58986 9.68369,2.8003 18.9331404,10.07303 23.1510774,18.20341 2.735861,5.27357 4.15188097,11.26157 4.15847997,17.58514 0.0079,7.60852 -1.95845897,13.86991 -6.47768297,20.62623 -5.0073244,7.48601 -14.3874494,13.50886 -23.2844904,14.9506 -3.064992,0.49667 -9.040209,0.71607 -11.354986,0.41693 z m 11.806267,-11.1293 c 8.64315,-2.20274 15.83653,-9.66245 18.254306,-18.93023 0.796396,-3.05271 0.987102,-8.11974 0.40757,-10.82902 -2.129219,-9.95392 -8.944277,-17.49486 -18.44591,-20.41062 -2.182529,-0.66974 -2.722075,-0.72689 -6.995149,-0.74089 -4.063476,-0.0132 -4.885241,0.0587 -6.713821,0.58843 -4.488466,1.30022 -8.937154,4.02776 -12.22098,7.49285 -9.01786,9.51558 -9.575774,23.58617 -1.347804,33.9916 3.614894,4.57155 9.374839,8.09175 14.858646,9.0809 0.873125,0.1575 1.885157,0.33956 2.248959,0.4046 1.573215,0.2812 7.933214,-0.13259 9.954183,-0.64762 z m 81.062486,-5.18163 c -2.995549,-0.8042 -5.604724,-2.31238 -8.167907,-4.72128 -1.919711,-1.80417 -3.459919,-4.01989 -4.981676,-7.16658 l -1.270209,-2.62655 -0.09156,-4.68463 c -0.106696,-5.45915 0.08707,-6.64821 1.574107,-9.65999 2.031732,-4.11493 5.793809,-7.81521 10.298115,-10.12891 l 2.59389,-1.33239 h 11.002832 11.00282 v 20.37292 20.37291 l -10.2526,-0.0175 c -8.165055,-0.0138 -10.548904,-0.097 -11.707816,-0.40809 z m -94.722622,-67.69865 c -2.873457,-0.54464 -6.5302,-1.79887 -9.313633,-3.19445 -10.517386,-5.2733 -17.63952,-14.85109 -19.664696,-26.44494 -0.606536,-3.47234 -0.614831,-9.2045 -0.01818,-12.56771 1.629627,-9.185968 6.889536,-17.691568 14.346929,-23.199881 4.227028,-3.122243 10.408886,-5.751704 15.153137,-6.445404 3.192159,-0.466757 11.362786,-0.184653 14.449418,0.498888 13.540105,2.998486 25.1494694,15.071929 27.54238037,28.643377 0.532791,3.02175 0.596452,10.00795 0.119104,13.07073 -1.07287197,6.8838 -4.82050997,13.93952 -10.33068537,19.44968 -5.284648,5.28465 -10.62078,8.22661 -17.81078,9.81956 -3.233161,0.71631 -11.527666,0.92845 -14.472989,0.37015 z m 12.437203,-10.4667 c 4.652108,-1.10681 10.005637,-4.36121 13.724078,-8.34287 2.262283,-2.42245 3.431966,-4.29466 4.644269,-7.43371 2.128753,-5.51204 2.485617,-10.52951 1.1166,-15.69924 -1.415561,-5.34548 -3.164846,-8.518658 -6.57728,-11.931088 -5.908424,-5.90843 -13.581561,-8.80713 -21.061708,-7.95655 -10.688481,1.2154 -19.634465,8.82779 -22.594356,19.226178 -0.823383,2.89264 -0.881099,10.09036 -0.103957,12.96459 2.249754,8.32061 8.539692,15.3307 16.269134,18.13179 3.385175,1.22677 5.088906,1.52389 8.894678,1.55125 2.602471,0.0188 3.986927,-0.10552 5.688542,-0.51035 z m 85.725003,-5.02621 c -3.775938,-0.25668 -6.322063,-1.19873 -9.691109,-3.58566 -3.373961,-2.39046 -6.600505,-6.83811 -7.803036,-10.75617 -0.488058,-1.5902 -0.537358,-2.31928 -0.45621,-6.74688 l 0.09098,-4.96402 1.106668,-2.30339 c 1.477999,-3.07628 2.850046,-5.037548 4.889399,-6.989138 2.79721,-2.67682 6.103009,-4.47503 9.81028,-5.33635 1.78127,-0.41385 8.327856,-0.44648 90.159273,-0.44931 85.46725,-0.003 88.2967,0.0125 90.09063,0.49333 4.87857,1.30754 9.21186,4.31172 12.11294,8.39767 1.03521,1.457988 2.755,5.048488 2.99527,6.253328 l 0.17148,0.8599 H 160.7183 73.240443 v 12.7 12.7 l -7.87136,-0.0422 c -4.32924,-0.0233 -9.121509,-0.12721 -10.649478,-0.23108 z M -43.29907,63.853899 c -3.996896,-0.62597 -11.240061,-3.808842 -14.647267,-6.436464 -2.26657,-1.747967 -7.668292,-7.443597 -9.259674,-9.76349 -0.774348,-1.128835 -1.927844,-3.151794 -2.563326,-4.49547 -3.640158,-7.696827 -4.332025,-17.814888 -1.764181,-25.799918 l 0.771155,-2.398001 -1.175978,-1.145479 c -1.558517,-1.518098 -4.606245,-5.1443983 -5.298927,-6.3048573 -0.304016,-0.509323 -0.698759,-1.675064 -0.87721,-2.590536 -1.352846,-6.940291 3.898633,-12.686869 11.097803,-12.1440842 2.517394,0.1898015 4.560546,1.180084 7.002121,3.3938132 1.676895,1.520407 1.867901,1.623706 2.513542,1.359355 0.384305,-0.15735 2.627424,-1.189342 4.984705,-2.293313 5.166053,-2.4193872 7.865052,-3.2385055 11.944438,-3.6250168 6.347272,-0.6013847 12.565505,0.3546343 17.972736,2.7632078 3.043865,1.355847 3.089373,1.361848 3.896294,0.513869 0.386641,-0.406316 4.960282,-5.7989107 10.1636464,-11.9835457 10.618968,-12.621541 13.74106,-16.274892 17.567154,-20.55642 3.2767986,-3.666844 4.0879876,-4.099078 7.9885166,-4.256587 3.512278,-0.141833 5.17546,0.443251 7.291034,2.564889 3.505258,3.515302 4.38794,8.730467 2.054005,12.135705 C 24.290433,-24.186706 17.757685,-16.1 5.3330444,-1.1778853 l -9.84491,11.8238353 1.182349,3.079851 c 5.697431,14.841003 2.84684997,29.1653 -7.9532434,39.965391 -5.293625,5.293627 -10.503263,8.206467 -17.276861,9.659937 -2.941299,0.63114 -11.956331,0.938647 -14.739449,0.50277 z m 8.98638,-10.050119 c 6.195198,-0.699239 11.020124,-2.986329 15.568849,-7.379875 5.075994,-4.902833 7.856707,-11.261665 7.934306,-18.143893 0.03597,-3.190354 -0.258058,-5.045102 -1.124569,-7.093752 l -0.426492,-1.008335 -6.414411,7.671991 c -10.692789,12.789162 -12.072675,14.191488 -14.760305,15.000346 -1.500259,0.451512 -4.713415,0.494498 -6.340377,0.08483 -1.517259,-0.382051 -4.391915,-2.784267 -11.716608,-9.791023 -7.443936,-7.120825 -9.261724,-8.700512 -10.011902,-8.700512 -0.85897,0 -0.976744,0.71364 -0.82178,4.979435 0.145343,4.000992 0.764759,6.485819 2.454383,9.845943 3.826103,7.608909 12.097049,13.587553 20.089006,14.521318 2.663852,0.311237 2.926583,0.311875 5.5699,0.01352 z m 0.601991,-40.579941 c 4.982377,-6.0364773 6.959881,-8.6698543 6.871981,-9.1511893 -0.255985,-1.401742 -8.857063,-2.576973 -13.689064,-1.870441 -2.344954,0.342877 -3.248636,0.650799 -7.000065,2.385198 l -2.367243,1.094449 6.069251,6.0735583 c 3.338089,3.340455 6.129753,6.067018 6.203701,6.059028 0.07395,-0.008 1.834094,-2.073762 3.911439,-4.590603 z M 53.52898,47.979901 c -2.67457,-0.225475 -4.571839,-0.853229 -6.970462,-2.306328 -3.689609,-2.23519 -7.067042,-6.2033 -8.611465,-10.117519 -1.993681,-5.05282 -1.996827,-10.533695 -0.0089,-15.502727 2.182016,-5.454182 5.643137,-8.878485 11.866139,-11.7399223 l 2.34795,-1.079625 90.117538,0.07482 c 84.47347,0.07013 90.21281,0.103429 91.63873,0.531694 5.91418,1.776262 11.07625,6.5750683 13.65387,12.6930423 0.68382,1.623047 0.69991,1.792123 0.6985,7.349805 -0.003,5.582134 -0.0148,5.719604 -0.71189,7.349088 -1.47158,3.439623 -4.4946,7.20185 -7.64069,9.50899 -0.81116,0.594855 -2.56495,1.629045 -3.89731,2.298198 l -2.42248,1.216641 -88.83915,-0.0377 c -48.861527,-0.02074 -89.910703,-0.12804 -91.22039,-0.23845 z"
       id="path871" /></g></svg>
