<?xml version="1.0" encoding="UTF-8" standalone="no"?>
<!-- Created with Inkscape (http://www.inkscape.org/) -->

<svg
   width="499.92752mm"
   height="501.52396mm"
   viewBox="0 0 499.92752 501.52396"
   version="1.1"
   id="svg5"
   xml:space="preserve"
   inkscape:version="1.2.1 (9c6d41e410, 2022-07-14, custom)"
   sodipodi:docname="menu.svg"
   xmlns:inkscape="http://www.inkscape.org/namespaces/inkscape"
   xmlns:sodipodi="http://sodipodi.sourceforge.net/DTD/sodipodi-0.dtd"
   xmlns="http://www.w3.org/2000/svg"
   xmlns:svg="http://www.w3.org/2000/svg">

	<style type="text/css">
		<![CDATA[
			path {
				fill:#fafafa;
			}
		]]> 
	  </style>

	<sodipodi:namedview
     id="namedview7"
     pagecolor="#ffffff"
     bordercolor="#000000"
     borderopacity="0.25"
     inkscape:showpageshadow="2"
     inkscape:pageopacity="0.0"
     inkscape:pagecheckerboard="0"
     inkscape:deskcolor="#d1d1d1"
     inkscape:document-units="mm"
     showgrid="false"
     inkscape:zoom="0.2102413"
     inkscape:cx="963.17897"
     inkscape:cy="908.47991"
     inkscape:window-width="1440"
     inkscape:window-height="831"
     inkscape:window-x="0"
     inkscape:window-y="0"
     inkscape:window-maximized="1"
     inkscape:current-layer="layer1" /><defs
     id="defs2" /><g
     inkscape:label="Capa 1"
     inkscape:groupmode="layer"
     id="layer1"
     transform="translate(150.15373,91.713737)"><path
       style="stroke-width:0.264583"
       d="m -36.859272,409.60597 c -38.637509,-0.17801 -39.77215,-0.19748 -42.887161,-0.73646 -6.077541,-1.05156 -13.105834,-3.11791 -19.406741,-5.70569 -12.577446,-5.16554 -24.561426,-14.34521 -33.153186,-25.39513 -6.67951,-8.59057 -12.10198,-19.4291 -14.90477,-29.7919 -1.74519,-6.4525 -2.26427,-10.05541 -2.51589,-17.4625 -0.36821,-10.83942 -0.58864,-246.001348 -0.28099,-299.772908 0.26514,-46.341566 0.28951,-47.85925 0.82223,-51.196871 2.86867,-17.972862 11.01757,-34.129069 23.5588,-46.708208 11.5066,-11.541384 26.629969,-19.740539 42.201042,-22.879359 4.908409,-0.98943 8.728175,-1.19338 27.252083,-1.45507 35.135619,-0.49637 325.133145,-0.0548 333.242705,0.50743 10.98566,0.76162 26.88252,6.952891 37.61632,14.650249 4.49792,3.225523 6.75471,5.138111 10.68311,9.053709 10.48644,10.452322 17.25411,21.989335 21.4263,36.525996 2.33325,8.129383 2.42131,9.344292 2.78921,38.4833744 0.36761,29.1149296 0.15473,321.4945176 -0.2385,327.5541576 -0.8333,12.84108 -7.06882,28.89822 -15.72019,40.48125 -3.68424,4.93271 -9.26798,10.87787 -13.82604,14.72097 -11.2051,9.44753 -24.37551,15.51051 -39.66382,18.25918 l -3.72785,0.67022 -32.54375,0.21704 c -38.35765,0.2558 -223.763305,0.24294 -280.722912,-0.0196 z M 268.73448,367.55802 c 5.42967,-0.2082 6.69512,-0.33774 8.73125,-0.89379 7.38933,-2.01805 12.8429,-5.21049 18.38306,-10.76121 5.2129,-5.22282 7.9596,-9.69441 10.71819,-17.44914 l 1.45812,-4.09892 V 159.0643 -16.226357 l -1.45812,-4.098941 c -2.75859,-7.75471 -5.50529,-12.226298 -10.71819,-17.449117 -5.54061,-5.55117 -10.99767,-8.745495 -18.38306,-10.760623 -2.04528,-0.558064 -3.3518,-0.689962 -9.26042,-0.934876 -9.7283,-0.403241 -327.293963,-0.406133 -336.68229,-0.0031 -5.748274,0.24679 -7.099324,0.385723 -9.128125,0.938668 -4.876858,1.329179 -9.238729,3.373458 -13.189479,6.181518 -2.868713,2.038985 -8.11289,7.319917 -10.174826,10.24614 -3.13503,4.449122 -5.93271,11.057192 -6.66905,15.752204 -0.15945,1.016638 -0.38362,14.7011064 -0.54829,33.469786 -0.35487,40.44724 -0.13571,306.368708 0.25807,313.134368 0.29796,5.11929 0.73024,7.17145 2.42502,11.5125 3.71309,9.51066 11.64917,17.98143 20.907483,22.31604 2.789494,1.30601 5.89575,2.41597 8.313989,2.97082 0.727604,0.16696 4.83526,0.38857 9.128125,0.49245 11.807277,0.28577 328.459673,0.30133 335.888543,0.0164 z"
       id="path176" /><path
       style="stroke-width:0.881796"
       d="m -56.947253,313.169 c -3.692004,-1.15615 -10.324848,-6.20362 -12.435303,-9.46302 -1.05197,-1.62467 -2.836515,-5.26429 -3.965654,-8.08806 -1.744523,-4.36272 -2.055514,-6.4179 -2.069843,-13.67848 -0.01544,-7.8245 0.204588,-9.07806 2.611548,-14.87867 2.917469,-7.03091 5.323852,-10.06007 11.182917,-14.07712 l 3.950735,-2.70868 H 97.418837 252.51054 l 3.95073,2.70868 c 5.86385,4.02033 8.26802,7.04959 11.17228,14.07712 2.33951,5.66101 2.62043,7.18904 2.64291,14.37604 0.0207,6.62067 -0.33296,9.03414 -2.00134,13.65742 -2.57588,7.13808 -6.72402,12.52873 -12.21682,15.87617 l -4.32128,2.63349 -153.157893,0.1534 c -84.236835,0.0843 -154.223706,-0.18035 -155.52638,-0.58829 z m 0,-128.6683 c -3.692004,-1.15616 -10.324848,-6.20361 -12.435303,-9.46302 -1.05197,-1.62467 -2.836515,-5.2643 -3.965654,-8.08806 -1.744523,-4.36271 -2.055514,-6.41789 -2.069843,-13.67849 -0.01544,-7.82449 0.204588,-9.07806 2.611548,-14.87867 2.917469,-7.03089 5.323852,-10.06007 11.182917,-14.07712 l 3.950735,-2.70867 H 97.418837 252.51054 l 3.95073,2.70867 c 5.86385,4.02034 8.26802,7.0496 11.17228,14.07712 2.33951,5.66103 2.62043,7.18906 2.64291,14.37606 0.0207,6.62067 -0.33296,9.03414 -2.00134,13.65742 -2.57588,7.13808 -6.72402,12.52873 -12.21682,15.87615 l -4.32128,2.63351 -153.157893,0.1534 c -84.236835,0.0843 -154.223706,-0.18037 -155.52638,-0.5883 z m 0.04792,-128.669024 c -6.730074,-2.153106 -12.93065,-8.74469 -16.406105,-17.440661 -1.79153,-4.482597 -2.098205,-6.484138 -2.11262,-13.788191 -0.01544,-7.824491 0.204588,-9.078059 2.611548,-14.87867 2.917469,-7.0308913 5.323852,-10.06005155 11.182917,-14.0771171 l 3.950735,-2.7086693 H 97.418827 252.51053 l 3.95074,2.7086693 c 5.86385,4.02034037 8.26801,7.0496046 11.17228,14.0771171 2.33951,5.661028 2.62043,7.189058 2.6429,14.376062 0.0207,6.620668 -0.33296,9.034135 -2.00134,13.65742 -2.57588,7.138077 -6.72402,12.528723 -12.21682,15.876165 l -4.32128,2.633491 -153.157893,0.153397 c -84.236825,0.08434 -154.20213,-0.180674 -155.478445,-0.589013 z"
       id="path304" /></g></svg>
